<svg id="圖層_1" height="512" viewBox="0 0 500 500" width="512" xmlns="http://www.w3.org/2000/svg" data-name="圖層 1"><path d="m356.47 169.11a45.86 45.86 0 0 1 27.4 6.21c6.69 4 10-5.93 4.31-9.31a57.67 57.67 0 0 0 -35.09-8.26c-6.58.55-2.7 11.87 3.38 11.36z"/><path d="m303.27 155.79a66.61 66.61 0 0 0 -34.09-9.25c-7.18.07-5.28 11.46.82 11.46a56.8 56.8 0 0 1 29 7.15c6.71 3.85 10-6.09 4.27-9.36z"/><path d="m337.13 215.17c.47-5.74-3.29-10.31-7-14.21-3.94-4.14-8.26-8.31-13.68-10.42-8.91-3.48-20.62.07-21.76 10.71-1.23 11.56 8.16 18.14 17.4 22.21a4.55 4.55 0 0 0 .84.37 5.34 5.34 0 0 0 1.26.37c8.72 2.46 21.94 3.05 22.94-9.03zm-22.55-1c-3.95-1.67-9.88-3.39-10.71-8.36-1-6 6.84-7.16 10.95-5.64 4.41 1.64 9.46 6.32 12.05 10.23 1.7 2.58.15 4.3-2.63 5.09-3.13.9-6.71-.36-9.66-1.31z"/><path d="m494.65 383.79q-16.14-2.18-32.28-4.23a304.68 304.68 0 0 0 3.11-48.37c-.26-17.95-2.09-36.28-7.66-53.43a15.07 15.07 0 0 0 1.48-2.76c2.26-5.68 2.76-12.14 2.82-18.2.08-8.71-2.6-18.51-8.92-24.35 7.8-6.45 12.8-15.27 15.28-25.45 4.93-19.91 2.72-42.67-1.34-62.51-4.49-21.92-14.44-43.51-30.61-59.28-16.53-16.1-37.9-27.3-60.15-32.9-25.34-6.38-51.94-4.93-77.33.34-23.35 5.57-44.64 20.57-59.45 39.28-7.13 9-12.92 19.15-16.12 30.24-3.31 11.43-3.55 24-2.42 35.82 2.38 24.68 12.51 48.68 29.48 66.89a131.3 131.3 0 0 0 25.5 21 23.63 23.63 0 0 0 -7.64 5.4c-4.91 5.15-7.67 12-10.07 18.59-6.88 18.86-16.17 37.17-36.84 43.35-12.55 3.75-38.28 8.25-44.06 22.55-2.62-7.77-4.63-17.37-10.11-23.77-4.79-5.57-11.39-7.87-18.45-8.76-8.55-1.08-17.06-2.56-25.56-4-24.92-4.2-49.79-8.71-74.7-12.92-10-1.68-19.94-3.36-29.95-4.76-4.13-.58-12-2.91-16-.77-2.19 1.17-2.43 3.49-2 5.7 1.25 6.16 4.9 12.61 7.19 18.48q7.2 18.48 14.49 36.92 14.58 36.91 29.46 73.67c.82 2 2.53 4.3 4.88 4.42 45.7 10.79 91.93 19.57 138 28.85l15.32 3.08a3 3 0 0 0 2.82-.79 3.89 3.89 0 0 0 .56-.1l98.77-26.37c4.73-1.27 3.48-8.68-.7-9.94a1128.94 1128.94 0 0 1 -122.54-44.38l-3.42-10.44c12.3 9.28 33.86 8.15 47.45 6.23a111.84 111.84 0 0 0 13.36-2.74c42.33 4.72 84.62 9.84 126.89 15.06a24.27 24.27 0 0 0 12.61 8.37c8.54 2.37 17.24.55 24.72-3.65 28.29 3.6 56.61 7.08 84.87 10.9 6.31.85 4.66-9.54-.74-10.27zm-73.18-9.42c9.28-10.07 16.13-23.78 19.7-36.86 4-14.72 3.08-30.6 8.3-45a52.1 52.1 0 0 1 2-4.89c3.42 13.83 4.58 28.21 4.8 42.43a288.36 288.36 0 0 1 -3.39 48.31zm-178.42-269.6c13.83-19.84 35.32-36.24 59-41.9 20.94-4.34 42.44-6.07 63.65-2.63a127 127 0 0 1 57.4 25.11c16.5 12.77 27.2 30.79 32.89 50.7 5.39 18.87 7.6 40.58 4.78 60.08-1.92 13.22-7.44 24.65-19.3 31.18-12.15-1.21-21.38 6.37-29 15a155.12 155.12 0 0 0 -10.77 13.66 3.1 3.1 0 0 0 -.4.13c-23.26 8.9-50.43 6.51-74.2.93-23.24-5.45-45.63-16-63.62-31.81-32.56-28.74-46.42-83.16-20.43-120.45zm-154.31 312.15c-9.92-2.11-19.84-4.22-29.72-6.51q-24.1-59.61-47.4-119.53c1.94.2 3.88.46 5.81.72 9.17 1.23 18.31 2.75 27.44 4.27 23.39 3.91 46.73 8.13 70.13 12.13 9.34 1.6 18.68 3.2 28.05 4.61 2.91.43 5.85.74 8.77 1.18 10.44 1.6 12.38 10.14 15.36 18.87 12.23 35.78 23.4 71.91 35.64 107.69-38.08-7.63-76.12-15.35-114.08-23.43zm203.47 2-80.21 21.42c-6.61-19.27-12.92-38.64-19.22-58 32.41 13.74 65.81 25.94 99.43 36.59zm-11.56-62v.16l-13.27-1.52 1.61-.76a65.1 65.1 0 0 0 13.25-8.48c-.48 3.57-.98 7.1-1.59 10.68zm9.43 1.27q2.09-12.83 2.88-25.77a4.66 4.66 0 0 0 .1-1.78 261.4 261.4 0 0 0 0-28.41c-.32-5.88-9.55-8.19-9.17-1.15a249.39 249.39 0 0 1 0 26.93c-7.33 13.85-25.09 20.99-39.89 24.99a3.53 3.53 0 0 0 -2.34.61l-1 .24a104.57 104.57 0 0 1 -31.66 2.87c-7.67-.49-21.78-1.54-23.44-11.34-1.51-8.91 13.53-14.18 19.91-16.55 9.28-3.46 19.33-4.49 28.32-8.78 15.29-7.29 25-22.8 30.72-38.19 4.71-12.72 9.09-28.47 25.52-28a165.2 165.2 0 0 0 26.3 10.38c24.12 7.23 51.53 10.93 76.59 5.37-1 1.68-2 3.37-2.93 5.09-14.69 26.23-26.65 54.81-24.26 85.42a2.84 2.84 0 0 0 0 .65 5.53 5.53 0 0 0 .2 1.09 46.05 46.05 0 0 0 1.45 5.72q-38.61-4.79-77.3-9.36zm84.92 3.7c-1.82-21.6 4.18-42.14 13.25-61.56 5.47-11.72 11.68-24.11 19.29-35.34a3.13 3.13 0 0 0 1.08-1.57 107.36 107.36 0 0 1 18-20.43 22.26 22.26 0 0 1 14.38-5.45c6.9 0 10.36 4.8 11.53 11.32a43 43 0 0 1 -.1 13.26 30 30 0 0 1 -1.48 6.82c-1 2.62-3.08 4.66-4.6 7-6.81 10.53-8.84 22.85-10.37 35.06-1.7 13.59-4 26.05-10.29 38.36-5.73 11.22-13.91 23.71-26.85 27.17-12.04 3.22-21.84-2.11-23.84-14.64z"/><path d="m365.79 218.16c-.93 5.49 7.91 10.42 9 3.72 2.09-12.24 12.77-21 25-21.54 5.89-.29 2.43-10.49-3-10.23-15.49.75-28.41 12.94-31 28.05z"/></svg>