<svg xmlns="http://www.w3.org/2000/svg" version="1.1" viewBox="0.00 0.00 1754.00 1453.00" height="100px" width="100px"
    transform="rotate(0) scale(1, 1)">
    <g stroke-width="2.00" fill="none" stroke-linecap="butt">
        <path stroke="#e95675" vector-effect="non-scaling-stroke"
            d="&#10;  M 809.90 287.01&#10;  Q 819.01 307.18 827.33 327.65&#10;  C 833.09 341.84 837.81 352.56 843.42 366.81&#10;  C 859.31 407.10 871.94 438.47 885.25 476.05&#10;  Q 885.96 478.07 887.90 477.17&#10;  Q 889.39 476.49 892.24 474.73&#10;  C 913.87 461.38 936.65 450.89 960.38 440.36&#10;  Q 979.48 431.87 994.91 426.43&#10;  Q 1006.04 422.49 1022.78 417.05&#10;  C 1047.67 408.94 1071.06 403.77 1100.08 397.85&#10;  Q 1138.44 390.03 1181.27 386.28&#10;  Q 1182.71 386.16 1184.08 385.57&#10;  A 0.94 0.94 0.0 0 0 1184.52 384.23&#10;  Q 1180.87 377.98 1177.40 370.68&#10;  C 1168.50 351.94 1158.53 333.63 1148.70 318.79&#10;  Q 1135.45 298.78 1129.88 291.12&#10;  C 1110.44 264.35 1088.69 238.55 1064.40 216.09&#10;  C 1053.59 206.08 1041.87 194.87 1028.83 184.64" />
        <path stroke="#e95675" vector-effect="non-scaling-stroke"
            d="&#10;  M 1028.83 184.64&#10;  Q 1015.37 174.20 1001.20 164.83&#10;  Q 983.42 153.08 977.83 149.68&#10;  Q 956.45 136.65 921.18 120.71&#10;  Q 912.78 116.92 902.64 113.25&#10;  Q 873.60 102.76 864.40 99.98&#10;  Q 840.38 92.73 824.22 89.43&#10;  Q 791.19 82.67 748.53 78.95&#10;  Q 738.25 78.05 728.56 77.73&#10;  Q 687.73 76.38 647.32 78.34&#10;  Q 645.39 78.43 642.28 78.20&#10;  A 0.49 0.40 -4.2 0 0 641.74 78.71&#10;  Q 641.80 78.90 642.18 79.10&#10;  C 649.59 83.03 658.45 86.49 664.73 89.94&#10;  C 676.96 96.65 687.23 105.09 699.27 114.93&#10;  Q 710.29 123.94 720.44 135.57&#10;  Q 736.15 153.60 742.49 162.71&#10;  C 760.60 188.76 777.07 218.73 790.95 246.80&#10;  Q 798.23 261.50 809.90 287.01" />
        <path stroke="#e95675" vector-effect="non-scaling-stroke"
            d="&#10;  M 1028.83 184.64&#10;  C 1024.79 187.54 1020.60 190.53 1017.02 193.73&#10;  C 1007.78 202.02 999.44 210.40 988.27 216.22&#10;  C 978.30 221.42 970.01 226.42 962.16 233.64&#10;  C 952.99 242.08 944.66 249.67 934.41 255.91&#10;  C 917.08 266.46 905.55 273.55 892.86 281.72&#10;  C 880.69 289.57 868.82 298.25 853.52 296.59&#10;  C 846.55 295.84 838.05 292.50 829.47 289.60&#10;  Q 821.85 287.02 809.90 287.01" />
        <path stroke="#e95675" vector-effect="non-scaling-stroke"
            d="&#10;  M 329.66 592.88&#10;  Q 336.43 609.34 343.79 625.22&#10;  Q 345.93 629.82 345.88 631.25&#10;  Q 345.70 636.51 343.34 641.56&#10;  C 339.36 650.04 335.84 657.02 331.56 667.00&#10;  Q 326.50 678.81 321.18 690.19&#10;  C 318.52 695.90 316.02 703.27 313.41 708.82&#10;  Q 307.40 721.61 302.24 733.91&#10;  C 294.96 751.27 286.94 768.23 279.44 785.50" />
        <path stroke="#e95675" vector-effect="non-scaling-stroke"
            d="&#10;  M 279.44 785.50&#10;  C 272.16 802.28 264.30 818.67 257.09 835.68&#10;  Q 251.57 848.71 245.16 861.41&#10;  Q 244.85 862.02 244.08 864.65&#10;  Q 243.29 867.36 245.48 865.58&#10;  C 249.26 862.51 255.93 856.71 261.54 852.56&#10;  Q 294.47 828.17 327.31 803.77" />
        <path stroke="#e95675" vector-effect="non-scaling-stroke"
            d="&#10;  M 327.31 803.77&#10;  Q 341.13 792.69 352.96 784.21&#10;  C 362.89 777.10 370.39 771.52 381.53 763.45&#10;  Q 389.16 757.92 398.91 750.42&#10;  Q 405.97 744.98 436.28 722.73&#10;  Q 442.35 718.27 448.90 714.03&#10;  C 460.74 706.36 470.75 697.33 481.45 689.94&#10;  C 486.11 686.72 488.60 685.82 494.27 685.66&#10;  Q 506.78 685.32 519.28 685.60" />
        <path stroke="#e95675" vector-effect="non-scaling-stroke"
            d="&#10;  M 519.28 685.60&#10;  Q 548.64 686.87 577.03 694.17&#10;  Q 598.15 699.60 605.10 702.35&#10;  Q 611.22 704.77 627.28 711.94&#10;  Q 643.43 719.15 698.18 740.65&#10;  Q 707.04 744.13 716.98 747.44&#10;  Q 729.58 751.63 750.66 758.87&#10;  Q 756.90 761.01 780.19 767.14" />
        <path stroke="#e95675" vector-effect="non-scaling-stroke"
            d="&#10;  M 780.19 767.14&#10;  Q 792.88 770.31 805.45 773.81&#10;  Q 814.53 776.33 835.29 780.15&#10;  Q 893.01 790.77 950.55 792.08&#10;  Q 976.44 792.66 1000.85 790.97&#10;  C 1039.60 788.28 1075.68 784.56 1112.56 775.77&#10;  C 1132.71 770.97 1151.85 766.48 1171.76 760.00&#10;  Q 1185.41 755.56 1215.29 744.27&#10;  Q 1221.31 742.00 1233.48 736.00&#10;  C 1243.67 730.98 1254.78 726.14 1263.78 721.26&#10;  Q 1290.33 706.84 1314.99 688.74&#10;  Q 1327.96 679.23 1342.51 667.77&#10;  Q 1360.25 653.81 1375.53 637.03&#10;  Q 1378.57 633.69 1396.78 613.53&#10;  Q 1405.22 604.19 1420.36 584.01" />
        <path stroke="#e95675" vector-effect="non-scaling-stroke"
            d="&#10;  M 1420.36 584.01&#10;  Q 1437.86 559.18 1453.53 533.19&#10;  Q 1455.19 530.43 1453.11 528.05&#10;  C 1447.19 521.32 1441.06 513.56 1434.95 507.04&#10;  Q 1417.85 488.82 1403.50 476.26&#10;  Q 1389.31 463.85 1370.31 451.44" />
        <path stroke="#e95675" vector-effect="non-scaling-stroke"
            d="&#10;  M 1370.31 451.44&#10;  Q 1364.39 447.21 1361.62 445.61&#10;  Q 1318.15 420.42 1268.90 410.85&#10;  Q 1263.74 409.85 1257.01 409.06&#10;  C 1243.26 407.46 1229.93 405.73 1216.31 406.50&#10;  C 1210.28 406.84 1205.05 407.50 1201.00 410.73&#10;  C 1190.85 418.84 1181.07 427.57 1169.59 433.12" />
        <path stroke="#e95675" vector-effect="non-scaling-stroke"
            d="&#10;  M 1169.59 433.12&#10;  Q 1137.99 444.28 1105.79 453.30&#10;  C 1098.75 455.27 1091.29 457.68 1083.99 459.75&#10;  Q 1075.07 462.28 1067.71 464.75&#10;  C 1058.30 467.91 1052.24 469.68 1045.25 472.41&#10;  Q 1013.00 485.02 996.83 493.12&#10;  Q 965.06 509.06 958.03 513.27&#10;  Q 938.47 524.99 929.63 530.15&#10;  Q 920.17 535.68 912.75 540.89&#10;  C 895.08 553.30 881.32 563.06 866.92 575.92" />
        <path stroke="#e95675" vector-effect="non-scaling-stroke"
            d="&#10;  M 866.92 575.92&#10;  C 859.88 582.10 852.07 590.20 846.64 595.31&#10;  C 841.87 599.81 836.28 604.76 831.60 610.03&#10;  Q 827.64 614.49 807.25 637.01&#10;  Q 805.38 639.08 796.14 652.10&#10;  Q 790.75 659.69 785.21 667.31&#10;  Q 772.31 685.02 769.28 690.29&#10;  Q 763.47 700.41 757.31 710.29" />
        <path stroke="#e95675" vector-effect="non-scaling-stroke"
            d="&#10;  M 757.31 710.29&#10;  Q 753.45 716.98 748.50 721.56" />
        <path stroke="#e95675" vector-effect="non-scaling-stroke"
            d="&#10;  M 748.50 721.56&#10;  Q 744.27 720.95 740.35 719.76&#10;  Q 733.45 717.65 732.38 717.38&#10;  Q 712.52 712.47 696.49 707.46&#10;  Q 677.70 701.59 645.81 689.24&#10;  Q 637.17 685.89 627.48 681.53&#10;  Q 607.63 672.61 594.30 666.89&#10;  Q 572.07 657.35 562.77 654.20&#10;  Q 544.48 648.02 526.19 641.82&#10;  Q 517.86 639.00 512.00 634.90" />
        <path stroke="#e95675" vector-effect="non-scaling-stroke"
            d="&#10;  M 512.00 634.90&#10;  Q 506.57 630.65 504.41 628.59&#10;  Q 463.49 589.67 421.18 552.21" />
        <path stroke="#e95675" vector-effect="non-scaling-stroke"
            d="&#10;  M 421.18 552.21&#10;  Q 396.84 529.83 372.82 507.08&#10;  Q 366.17 500.78 358.15 493.61&#10;  Q 330.68 469.05 304.07 443.55&#10;  C 293.75 433.66 283.53 426.10 274.51 417.05&#10;  C 269.89 412.42 261.80 405.48 256.17 399.03&#10;  Q 252.01 394.25 249.04 391.15&#10;  Q 248.32 390.41 247.73 390.20&#10;  A 0.53 0.53 0.0 0 0 247.05 390.87&#10;  Q 250.90 402.52 257.55 418.85&#10;  Q 271.16 452.22 281.64 477.32&#10;  Q 285.90 487.53 289.22 495.87&#10;  Q 298.54 519.36 309.78 544.88&#10;  Q 313.32 552.90 317.55 563.27&#10;  Q 323.61 578.17 329.66 592.88" />
        <path stroke="#e95675" vector-effect="non-scaling-stroke"
            d="&#10;  M 421.18 552.21&#10;  Q 410.19 558.49 398.98 564.50&#10;  Q 393.99 567.18 380.60 573.14&#10;  Q 372.07 576.94 360.55 583.56&#10;  Q 347.12 591.29 329.66 592.88" />
        <path stroke="#e95675" vector-effect="non-scaling-stroke"
            d="&#10;  M 327.31 803.77&#10;  Q 325.30 795.14 323.75 791.91&#10;  C 313.92 771.50 295.15 775.74 279.44 785.50" />
        <path stroke="#e95675" vector-effect="non-scaling-stroke"
            d="&#10;  M 1420.36 584.01&#10;  Q 1405.90 585.88 1391.43 587.24&#10;  Q 1378.16 588.48 1371.65 589.83&#10;  Q 1359.22 592.41 1348.31 597.01&#10;  Q 1321.97 608.10 1293.48 623.85&#10;  Q 1256.53 644.28 1251.24 646.85&#10;  C 1229.39 657.46 1212.01 664.39 1192.29 673.01&#10;  C 1173.78 681.11 1154.35 693.77 1141.86 700.35&#10;  Q 1126.14 708.62 1091.70 725.00&#10;  Q 1081.81 729.70 1072.02 733.79&#10;  Q 1008.94 760.11 942.54 781.55&#10;  A 1.63 1.59 -16.8 0 0 941.46 783.51&#10;  Q 941.55 783.82 943.00 784.05&#10;  Q 948.51 784.89 954.00 785.56&#10;  A 0.16 0.15 -69.7 0 1 954.11 785.80&#10;  L 953.77 786.30&#10;  A 0.24 0.22 -72.3 0 1 953.58 786.41&#10;  Q 936.40 786.65 920.84 784.87&#10;  Q 881.34 780.37 827.34 775.70&#10;  C 825.60 775.55 824.31 775.48 822.69 775.13&#10;  Q 801.56 770.56 780.19 767.14" />
        <path stroke="#e95675" vector-effect="non-scaling-stroke"
            d="&#10;  M 519.28 685.60&#10;  Q 516.54 685.08 514.60 683.95&#10;  A 2.01 2.01 0.0 0 1 513.89 681.17&#10;  Q 518.81 673.00 519.00 663.94&#10;  Q 519.32 648.68 512.00 634.90" />
        <path stroke="#e95675" vector-effect="non-scaling-stroke"
            d="&#10;  M 1274.94 520.24&#10;  C 1280.95 533.53 1292.61 542.09 1307.31 541.31&#10;  Q 1317.14 540.79 1325.55 534.14&#10;  C 1335.52 526.26 1343.12 514.24 1341.36 501.00&#10;  Q 1339.53 487.26 1328.28 479.10" />
        <path stroke="#e95675" vector-effect="non-scaling-stroke"
            d="&#10;  M 1370.31 451.44&#10;  Q 1355.01 448.11 1340.79 441.58&#10;  Q 1331.33 437.24 1323.16 433.80&#10;  Q 1320.39 432.64 1322.86 434.35&#10;  Q 1323.66 434.90 1325.90 436.06&#10;  C 1335.74 441.17 1345.67 445.98 1353.57 453.08&#10;  C 1363.97 462.42 1355.30 472.90 1346.57 478.28&#10;  C 1340.13 482.24 1335.00 481.14 1328.28 479.10" />
        <path stroke="#e95675" vector-effect="non-scaling-stroke"
            d="&#10;  M 1328.28 479.10&#10;  C 1306.79 463.20 1278.99 475.77 1273.01 500.56&#10;  Q 1270.69 510.18 1274.94 520.24" />
        <path stroke="#e95675" vector-effect="non-scaling-stroke"
            d="&#10;  M 1274.94 520.24&#10;  Q 1255.86 530.16 1235.64 537.41&#10;  Q 1208.42 547.18 1181.31 557.20&#10;  Q 1166.16 562.80 1151.54 570.60&#10;  Q 1148.96 571.97 1148.21 572.13&#10;  Q 1139.66 573.93 1130.48 578.12&#10;  C 1104.37 590.04 1081.19 600.72 1055.66 609.24&#10;  C 1047.15 612.09 1035.56 614.66 1026.03 617.54&#10;  C 1005.17 623.85 989.19 632.19 964.26 643.89&#10;  Q 953.72 648.84 925.41 659.98&#10;  Q 908.04 666.81 895.18 670.06&#10;  C 884.77 672.69 871.55 675.82 860.72 679.51&#10;  Q 840.95 686.25 822.77 694.43&#10;  C 813.18 698.75 806.86 703.96 799.97 710.96&#10;  C 790.04 721.04 777.26 725.73 762.93 724.49&#10;  Q 757.59 724.03 748.50 721.56" />
        <path stroke="#e95675" vector-effect="non-scaling-stroke" d="&#10;  M 757.31 710.29&#10;  L 767.33 714.26" />
        <path stroke="#e95675" vector-effect="non-scaling-stroke"
            d="&#10;  M 767.33 714.26&#10;  Q 764.19 717.86 763.33 722.50&#10;  Q 763.23 723.00 763.75 723.04&#10;  Q 766.86 723.23 768.78 721.02&#10;  C 772.87 716.31 778.38 709.39 783.71 704.27&#10;  Q 801.32 687.39 830.10 659.86&#10;  Q 831.54 658.48 832.24 658.00&#10;  C 834.18 656.65 835.72 654.94 837.68 653.43&#10;  Q 849.64 644.18 860.19 636.47&#10;  C 876.80 624.33 893.53 614.66 913.41 603.84&#10;  C 918.54 601.04 924.65 598.69 930.01 596.07&#10;  Q 935.21 593.52 942.70 590.89&#10;  Q 963.44 583.61 969.62 582.14&#10;  Q 984.44 578.61 998.99 577.25&#10;  C 1007.61 576.44 1020.94 576.30 1031.66 575.18&#10;  Q 1037.76 574.55 1043.50 574.01&#10;  Q 1058.00 572.63 1070.87 570.12&#10;  Q 1075.83 569.15 1089.16 563.67&#10;  C 1091.73 562.62 1094.65 560.79 1097.91 558.66&#10;  Q 1099.59 557.56 1105.60 553.57&#10;  Q 1118.66 544.88 1129.58 531.58&#10;  Q 1141.52 517.06 1144.44 511.67&#10;  Q 1148.05 505.01 1152.13 498.62&#10;  Q 1153.29 496.81 1159.47 482.80&#10;  C 1161.34 478.58 1162.13 474.26 1163.80 470.34&#10;  C 1165.24 466.95 1165.59 462.82 1166.59 459.65&#10;  Q 1167.75 456.02 1168.25 451.57&#10;  Q 1168.73 447.22 1170.24 441.49&#10;  Q 1170.37 441.00 1170.24 440.51&#10;  Q 1169.26 436.89 1169.59 433.12" />
        <path stroke="#e95675" vector-effect="non-scaling-stroke"
            d="&#10;  M 767.33 714.26&#10;  C 770.10 711.00 773.59 708.27 776.13 705.18&#10;  Q 783.75 695.90 786.37 693.62&#10;  C 795.67 685.53 803.36 679.37 809.10 673.35&#10;  C 811.24 671.10 813.47 667.45 815.96 664.86&#10;  Q 826.46 653.92 830.48 650.96&#10;  Q 836.06 646.85 840.68 641.68&#10;  C 845.58 636.19 848.81 634.96 855.85 631.28&#10;  Q 860.13 629.04 863.58 625.64&#10;  Q 866.56 622.71 869.56 620.55&#10;  Q 879.69 613.27 888.20 606.37&#10;  C 895.36 600.56 901.63 593.32 902.12 583.52&#10;  Q 902.54 574.84 899.08 566.90&#10;  C 896.81 561.71 891.93 562.40 887.75 564.67&#10;  Q 877.40 570.28 866.92 575.92" />
        <path stroke="#e95675" vector-effect="non-scaling-stroke" d="&#10;  M 682.24 526.56&#10;  L 665.24 557.54" />
        <path stroke="#e95675" vector-effect="non-scaling-stroke"
            d="&#10;  M 665.24 557.54&#10;  Q 659.96 566.58 655.32 572.32&#10;  Q 644.65 585.55 628.83 597.07&#10;  Q 609.18 611.37 590.33 619.32&#10;  Q 589.90 619.50 589.69 619.83&#10;  A 0.45 0.45 0.0 0 0 590.06 620.53&#10;  Q 593.38 620.63 595.23 620.39&#10;  Q 612.98 618.14 622.13 617.17&#10;  Q 634.52 615.85 641.91 614.36&#10;  Q 654.71 611.77 665.56 608.56&#10;  Q 684.41 602.98 690.98 600.73&#10;  Q 704.09 596.23 718.53 588.77" />
        <path stroke="#e95675" vector-effect="non-scaling-stroke" d="&#10;  M 718.53 588.77&#10;  L 743.40 573.63" />
        <path stroke="#e95675" vector-effect="non-scaling-stroke"
            d="&#10;  M 743.40 573.63&#10;  Q 762.21 559.54 773.30 549.05&#10;  Q 791.89 531.47 812.68 506.39&#10;  C 814.90 503.71 817.50 501.59 819.53 499.31&#10;  A 0.99 0.99 0.0 0 0 819.03 497.69&#10;  C 812.40 496.06 804.53 493.88 794.85 491.04&#10;  C 778.69 486.29 762.90 483.34 746.05 483.81&#10;  C 723.82 484.44 703.06 496.31 690.26 514.23&#10;  Q 686.03 520.16 682.24 526.56" />
        <path stroke="#e95675" vector-effect="non-scaling-stroke"
            d="&#10;  M 743.40 573.63&#10;  Q 735.86 564.19 727.91 555.64&#10;  Q 708.86 535.17 682.24 526.56" />
        <path stroke="#e95675" vector-effect="non-scaling-stroke"
            d="&#10;  M 718.53 588.77&#10;  C 703.81 580.84 692.44 572.61 679.64 563.97&#10;  Q 673.81 560.03 665.24 557.54" />
        <path stroke="#e95675" vector-effect="non-scaling-stroke"
            d="&#10;  M 1038.11 857.36&#10;  Q 1039.85 862.09 1041.64 866.62&#10;  Q 1052.78 894.77 1065.59 924.27&#10;  Q 1068.77 931.58 1073.90 942.45&#10;  Q 1076.07 947.02 1086.04 968.50&#10;  Q 1098.26 994.82 1116.96 1029.67&#10;  Q 1120.52 1036.29 1126.45 1046.24&#10;  C 1130.87 1053.65 1135.13 1061.52 1139.90 1069.01" />
        <path stroke="#e95675" vector-effect="non-scaling-stroke"
            d="&#10;  M 1139.90 1069.01&#10;  Q 1163.40 1107.72 1191.64 1143.05&#10;  Q 1197.75 1150.69 1204.70 1158.34&#10;  Q 1227.01 1182.92 1254.94 1207.74&#10;  Q 1256.59 1209.21 1271.33 1220.16&#10;  Q 1277.59 1224.81 1285.91 1229.82&#10;  Q 1298.50 1237.41 1301.43 1239.12&#10;  C 1335.79 1259.13 1373.39 1273.27 1413.81 1280.71&#10;  Q 1433.43 1284.32 1447.14 1285.60&#10;  Q 1472.70 1288.00 1503.91 1287.42&#10;  Q 1513.42 1287.25 1522.34 1286.41&#10;  Q 1525.23 1286.14 1540.74 1284.82&#10;  Q 1589.78 1280.65 1641.06 1266.86&#10;  Q 1645.49 1265.67 1649.42 1264.89&#10;  C 1655.35 1263.72 1660.47 1263.36 1662.84 1260.20&#10;  A 0.55 0.55 0.0 0 0 1662.42 1259.32&#10;  Q 1652.10 1258.97 1641.82 1256.15&#10;  Q 1593.50 1242.89 1554.28 1212.06&#10;  Q 1537.42 1198.81 1522.73 1183.33&#10;  C 1516.98 1177.27 1510.84 1171.95 1505.66 1165.91&#10;  Q 1486.26 1143.30 1470.01 1119.66&#10;  Q 1449.44 1089.74 1437.84 1069.65&#10;  Q 1419.20 1037.36 1395.84 991.16" />
        <path stroke="#e95675" vector-effect="non-scaling-stroke"
            d="&#10;  M 1395.84 991.16&#10;  Q 1389.29 978.32 1383.21 965.08&#10;  Q 1367.99 931.94 1353.74 898.37&#10;  Q 1350.13 889.88 1345.79 880.01&#10;  Q 1328.90 841.67 1313.97 802.47" />
        <path stroke="#e95675" vector-effect="non-scaling-stroke"
            d="&#10;  M 1313.97 802.47&#10;  Q 1306.10 782.78 1298.53 762.91&#10;  Q 1294.48 752.28 1291.15 740.67&#10;  Q 1290.61 738.77 1288.85 739.67&#10;  C 1267.71 750.50 1247.64 759.94 1226.57 768.08&#10;  Q 1213.02 773.32 1208.77 774.75&#10;  Q 1168.87 788.22 1157.17 791.16&#10;  Q 1130.12 797.97 1121.75 799.73&#10;  Q 1098.18 804.71 1074.27 807.57&#10;  Q 1070.07 808.08 1050.51 810.46&#10;  C 1040.17 811.71 1032.35 812.08 1022.41 812.76&#10;  A 0.50 0.49 -12.1 0 0 1021.98 813.42&#10;  L 1038.11 857.36" />
        <path stroke="#e95675" vector-effect="non-scaling-stroke"
            d="&#10;  M 1313.97 802.47&#10;  C 1312.91 806.32 1310.87 814.22 1305.68 813.69&#10;  C 1297.46 812.86 1291.60 813.30 1284.48 817.62&#10;  Q 1278.02 821.54 1272.01 825.38&#10;  C 1263.69 830.69 1253.13 835.46 1245.03 840.34&#10;  Q 1233.20 847.46 1223.74 860.08&#10;  Q 1219.88 865.22 1218.93 866.78&#10;  Q 1214.47 874.13 1201.62 893.57&#10;  Q 1192.87 906.81 1189.35 910.87&#10;  Q 1176.42 925.75 1159.36 947.70&#10;  C 1150.94 958.55 1140.11 962.68 1126.73 962.00&#10;  C 1117.41 961.54 1108.11 960.38 1098.69 960.46&#10;  Q 1095.05 960.49 1084.63 957.85&#10;  Q 1084.07 957.71 1084.21 958.19&#10;  L 1084.40 958.88&#10;  Q 1084.69 959.92 1084.22 958.95&#10;  Q 1079.81 949.88 1074.25 939.92&#10;  C 1072.02 935.93 1071.43 930.08 1069.12 925.61&#10;  Q 1064.36 916.43 1060.24 907.57&#10;  C 1057.54 901.74 1054.69 893.30 1053.14 889.07&#10;  C 1050.04 880.61 1045.48 871.60 1041.91 862.69&#10;  Q 1040.99 860.41 1038.11 857.36" />
        <path stroke="#e95675" vector-effect="non-scaling-stroke"
            d="&#10;  M 1395.84 991.16&#10;  Q 1397.41 1005.62 1397.80 1014.98&#10;  Q 1398.34 1027.87 1390.30 1037.85&#10;  Q 1382.14 1047.98 1380.31 1051.23&#10;  Q 1377.40 1056.42 1373.83 1062.43&#10;  Q 1370.48 1068.06 1361.98 1074.41&#10;  C 1349.02 1084.09 1333.88 1094.41 1321.23 1106.04&#10;  C 1312.72 1113.86 1302.10 1126.69 1294.88 1133.83&#10;  Q 1279.03 1149.50 1257.79 1159.69&#10;  Q 1248.65 1164.07 1237.33 1163.58&#10;  C 1223.41 1162.98 1211.97 1158.57 1200.60 1150.78&#10;  Q 1199.20 1149.81 1198.07 1147.45&#10;  Q 1197.84 1146.97 1197.41 1146.66&#10;  C 1194.55 1144.60 1192.59 1141.40 1190.87 1139.45&#10;  Q 1187.40 1135.52 1183.78 1130.34&#10;  Q 1179.99 1124.94 1176.96 1121.13&#10;  Q 1171.54 1114.32 1165.80 1104.58&#10;  C 1165.13 1103.43 1163.72 1102.70 1163.27 1101.87&#10;  C 1160.45 1096.71 1157.73 1093.31 1154.70 1089.04&#10;  C 1150.41 1082.97 1146.80 1073.08 1139.90 1069.01" />
        <path stroke="#e95675" vector-effect="non-scaling-stroke"
            d="&#10;  M 636.18 907.44&#10;  C 620.40 926.38 609.70 943.27 595.70 959.30&#10;  Q 571.46 987.06 561.99 997.24&#10;  Q 546.91 1013.45 520.64 1038.76&#10;  Q 513.73 1045.42 505.85 1052.20&#10;  Q 478.01 1076.12 471.70 1080.96&#10;  Q 452.09 1096.01 446.75 1099.74&#10;  Q 433.98 1108.67 408.60 1124.35&#10;  Q 391.05 1135.20 364.94 1147.27" />
        <path stroke="#e95675" vector-effect="non-scaling-stroke"
            d="&#10;  M 364.94 1147.27&#10;  Q 350.42 1153.60 335.87 1159.87&#10;  Q 323.51 1165.21 299.44 1171.83&#10;  C 286.33 1175.44 273.60 1178.58 259.78 1180.86&#10;  Q 251.81 1182.18 223.25 1183.96&#10;  C 202.97 1185.23 185.43 1183.77 164.71 1181.09" />
        <path stroke="#e95675" vector-effect="non-scaling-stroke"
            d="&#10;  M 164.71 1181.09&#10;  Q 146.53 1178.10 140.39 1176.87&#10;  C 124.10 1173.61 107.46 1167.65 91.51 1160.78&#10;  Q 84.39 1157.71 78.02 1153.69&#10;  Q 77.48 1153.35 77.65 1153.97&#10;  Q 78.13 1155.73 79.44 1157.23&#10;  Q 94.01 1174.06 115.05 1195.32&#10;  Q 121.84 1202.18 129.69 1208.52&#10;  Q 150.60 1225.40 158.79 1231.06&#10;  Q 169.23 1238.28 195.14 1252.85&#10;  Q 202.61 1257.05 211.53 1261.10&#10;  Q 224.46 1266.96 228.29 1268.47&#10;  Q 295.13 1294.81 366.68 1283.57" />
        <path stroke="#e95675" vector-effect="non-scaling-stroke"
            d="&#10;  M 366.68 1283.57&#10;  Q 382.77 1280.85 387.34 1279.87&#10;  Q 425.88 1271.58 462.71 1252.63&#10;  Q 483.88 1241.73 496.93 1233.93&#10;  Q 514.86 1223.20 532.32 1207.55" />
        <path stroke="#e95675" vector-effect="non-scaling-stroke"
            d="&#10;  M 532.32 1207.55&#10;  Q 557.54 1186.15 580.48 1162.28&#10;  Q 587.13 1155.37 593.51 1147.77&#10;  Q 599.79 1140.30 605.86 1132.65&#10;  Q 619.92 1114.96 639.48 1086.73&#10;  Q 646.09 1077.19 655.32 1062.25" />
        <path stroke="#e95675" vector-effect="non-scaling-stroke"
            d="&#10;  M 655.32 1062.25&#10;  Q 664.95 1047.17 668.80 1040.05&#10;  Q 677.01 1024.88 698.83 982.14&#10;  C 705.39 969.30 711.87 956.82 717.28 943.22&#10;  C 721.07 933.68 729.83 913.27 735.44 897.95&#10;  C 739.52 886.83 744.62 873.93 748.16 863.86&#10;  Q 760.89 827.68 770.07 795.35&#10;  C 770.73 793.04 771.77 790.70 772.48 788.36&#10;  A 2.02 2.02 0.0 0 0 771.68 786.09&#10;  C 768.95 784.25 765.55 782.71 761.99 781.63&#10;  Q 749.70 777.91 738.07 773.30&#10;  C 734.44 771.86 730.62 769.75 727.50 768.11&#10;  A 1.40 1.40 0.0 0 0 725.54 768.84&#10;  Q 724.99 770.27 723.90 772.22&#10;  Q 713.96 790.15 692.00 825.73&#10;  Q 686.99 833.85 681.23 842.58&#10;  Q 666.78 864.46 658.74 876.01&#10;  Q 652.50 884.98 636.18 907.44" />
        <path stroke="#e95675" vector-effect="non-scaling-stroke"
            d="&#10;  M 655.32 1062.25&#10;  Q 652.18 1052.28 648.09 1046.10&#10;  Q 641.76 1036.53 638.26 1030.61&#10;  Q 629.73 1016.21 628.23 1000.63&#10;  C 627.55 993.48 627.47 984.51 626.00 977.05&#10;  Q 624.37 968.72 621.05 960.38&#10;  C 618.03 952.80 616.48 948.87 619.52 941.97&#10;  C 622.28 935.70 626.51 929.93 630.17 924.14&#10;  Q 635.03 916.44 636.18 907.44" />
        <path stroke="#e95675" vector-effect="non-scaling-stroke"
            d="&#10;  M 532.32 1207.55&#10;  Q 525.58 1204.79 521.51 1202.37&#10;  Q 509.49 1195.25 495.13 1184.76&#10;  Q 486.73 1178.63 482.55 1174.02&#10;  C 470.71 1160.98 465.08 1145.51 467.49 1127.76&#10;  Q 468.15 1122.88 470.01 1110.85&#10;  C 470.87 1105.27 470.85 1096.83 462.06 1100.27&#10;  Q 457.30 1102.14 452.45 1105.01&#10;  Q 425.00 1121.28 407.87 1130.78&#10;  Q 395.81 1137.47 383.70 1142.72&#10;  C 377.61 1145.35 371.25 1147.53 364.94 1147.27" />
        <path stroke="#e95675" vector-effect="non-scaling-stroke"
            d="&#10;  M 366.68 1283.57&#10;  C 356.49 1276.22 349.15 1270.36 342.60 1261.82&#10;  Q 334.25 1250.95 325.41 1240.75&#10;  C 320.76 1235.39 316.31 1229.55 313.14 1223.70&#10;  Q 310.94 1219.63 305.19 1207.34&#10;  C 299.86 1195.93 291.44 1190.40 279.31 1185.39&#10;  Q 278.83 1185.19 278.33 1185.28&#10;  Q 273.16 1186.18 257.76 1188.59&#10;  C 246.20 1190.40 229.40 1190.09 219.12 1190.90&#10;  Q 212.33 1191.44 203.67 1191.04&#10;  Q 197.95 1190.77 188.15 1190.99&#10;  Q 182.98 1191.10 169.67 1188.55&#10;  Q 168.98 1188.42 169.50 1188.19&#10;  Q 169.70 1188.10 169.78 1187.96&#10;  Q 169.89 1187.76 169.71 1187.35&#10;  Q 168.11 1183.51 164.71 1181.09" />
    </g>
    <path fill="#e63f63"
        d="&#10;  M 1028.83 184.64&#10;  C 1024.79 187.54 1020.60 190.53 1017.02 193.73&#10;  C 1007.78 202.02 999.44 210.40 988.27 216.22&#10;  C 978.30 221.42 970.01 226.42 962.16 233.64&#10;  C 952.99 242.08 944.66 249.67 934.41 255.91&#10;  C 917.08 266.46 905.55 273.55 892.86 281.72&#10;  C 880.69 289.57 868.82 298.25 853.52 296.59&#10;  C 846.55 295.84 838.05 292.50 829.47 289.60&#10;  Q 821.85 287.02 809.90 287.01&#10;  Q 798.23 261.50 790.95 246.80&#10;  C 777.07 218.73 760.60 188.76 742.49 162.71&#10;  Q 736.15 153.60 720.44 135.57&#10;  Q 710.29 123.94 699.27 114.93&#10;  C 687.23 105.09 676.96 96.65 664.73 89.94&#10;  C 658.45 86.49 649.59 83.03 642.18 79.10&#10;  Q 641.80 78.90 641.74 78.71&#10;  A 0.49 0.40 -4.2 0 1 642.28 78.20&#10;  Q 645.39 78.43 647.32 78.34&#10;  Q 687.73 76.38 728.56 77.73&#10;  Q 738.25 78.05 748.53 78.95&#10;  Q 791.19 82.67 824.22 89.43&#10;  Q 840.38 92.73 864.40 99.98&#10;  Q 873.60 102.76 902.64 113.25&#10;  Q 912.78 116.92 921.18 120.71&#10;  Q 956.45 136.65 977.83 149.68&#10;  Q 983.42 153.08 1001.20 164.83&#10;  Q 1015.37 174.20 1028.83 184.64&#10;  Z" />
    <path fill="#e95675"
        d="&#10;  M 1028.83 184.64&#10;  C 1041.87 194.87 1053.59 206.08 1064.40 216.09&#10;  C 1088.69 238.55 1110.44 264.35 1129.88 291.12&#10;  Q 1135.45 298.78 1148.70 318.79&#10;  C 1158.53 333.63 1168.50 351.94 1177.40 370.68&#10;  Q 1180.87 377.98 1184.52 384.23&#10;  A 0.94 0.94 0.0 0 1 1184.08 385.57&#10;  Q 1182.71 386.16 1181.27 386.28&#10;  Q 1138.44 390.03 1100.08 397.85&#10;  C 1071.06 403.77 1047.67 408.94 1022.78 417.05&#10;  Q 1006.04 422.49 994.91 426.43&#10;  Q 979.48 431.87 960.38 440.36&#10;  C 936.65 450.89 913.87 461.38 892.24 474.73&#10;  Q 889.39 476.49 887.90 477.17&#10;  Q 885.96 478.07 885.25 476.05&#10;  C 871.94 438.47 859.31 407.10 843.42 366.81&#10;  C 837.81 352.56 833.09 341.84 827.33 327.65&#10;  Q 819.01 307.18 809.90 287.01&#10;  Q 821.85 287.02 829.47 289.60&#10;  C 838.05 292.50 846.55 295.84 853.52 296.59&#10;  C 868.82 298.25 880.69 289.57 892.86 281.72&#10;  C 905.55 273.55 917.08 266.46 934.41 255.91&#10;  C 944.66 249.67 952.99 242.08 962.16 233.64&#10;  C 970.01 226.42 978.30 221.42 988.27 216.22&#10;  C 999.44 210.40 1007.78 202.02 1017.02 193.73&#10;  C 1020.60 190.53 1024.79 187.54 1028.83 184.64&#10;  Z" />
    <path fill="#e95675"
        d="&#10;  M 421.18 552.21&#10;  Q 410.19 558.49 398.98 564.50&#10;  Q 393.99 567.18 380.60 573.14&#10;  Q 372.07 576.94 360.55 583.56&#10;  Q 347.12 591.29 329.66 592.88&#10;  Q 323.61 578.17 317.55 563.27&#10;  Q 313.32 552.90 309.78 544.88&#10;  Q 298.54 519.36 289.22 495.87&#10;  Q 285.90 487.53 281.64 477.32&#10;  Q 271.16 452.22 257.55 418.85&#10;  Q 250.90 402.52 247.05 390.87&#10;  A 0.53 0.53 0.0 0 1 247.73 390.20&#10;  Q 248.32 390.41 249.04 391.15&#10;  Q 252.01 394.25 256.17 399.03&#10;  C 261.80 405.48 269.89 412.42 274.51 417.05&#10;  C 283.53 426.10 293.75 433.66 304.07 443.55&#10;  Q 330.68 469.05 358.15 493.61&#10;  Q 366.17 500.78 372.82 507.08&#10;  Q 396.84 529.83 421.18 552.21&#10;  Z" />
    <path fill="#ea617e"
        d="&#10;  M 1370.31 451.44&#10;  Q 1355.01 448.11 1340.79 441.58&#10;  Q 1331.33 437.24 1323.16 433.80&#10;  Q 1320.39 432.64 1322.86 434.35&#10;  Q 1323.66 434.90 1325.90 436.06&#10;  C 1335.74 441.17 1345.67 445.98 1353.57 453.08&#10;  C 1363.97 462.42 1355.30 472.90 1346.57 478.28&#10;  C 1340.13 482.24 1335.00 481.14 1328.28 479.10&#10;  C 1306.79 463.20 1278.99 475.77 1273.01 500.56&#10;  Q 1270.69 510.18 1274.94 520.24&#10;  Q 1255.86 530.16 1235.64 537.41&#10;  Q 1208.42 547.18 1181.31 557.20&#10;  Q 1166.16 562.80 1151.54 570.60&#10;  Q 1148.96 571.97 1148.21 572.13&#10;  Q 1139.66 573.93 1130.48 578.12&#10;  C 1104.37 590.04 1081.19 600.72 1055.66 609.24&#10;  C 1047.15 612.09 1035.56 614.66 1026.03 617.54&#10;  C 1005.17 623.85 989.19 632.19 964.26 643.89&#10;  Q 953.72 648.84 925.41 659.98&#10;  Q 908.04 666.81 895.18 670.06&#10;  C 884.77 672.69 871.55 675.82 860.72 679.51&#10;  Q 840.95 686.25 822.77 694.43&#10;  C 813.18 698.75 806.86 703.96 799.97 710.96&#10;  C 790.04 721.04 777.26 725.73 762.93 724.49&#10;  Q 757.59 724.03 748.50 721.56&#10;  Q 753.45 716.98 757.31 710.29&#10;  L 767.33 714.26&#10;  Q 764.19 717.86 763.33 722.50&#10;  Q 763.23 723.00 763.75 723.04&#10;  Q 766.86 723.23 768.78 721.02&#10;  C 772.87 716.31 778.38 709.39 783.71 704.27&#10;  Q 801.32 687.39 830.10 659.86&#10;  Q 831.54 658.48 832.24 658.00&#10;  C 834.18 656.65 835.72 654.94 837.68 653.43&#10;  Q 849.64 644.18 860.19 636.47&#10;  C 876.80 624.33 893.53 614.66 913.41 603.84&#10;  C 918.54 601.04 924.65 598.69 930.01 596.07&#10;  Q 935.21 593.52 942.70 590.89&#10;  Q 963.44 583.61 969.62 582.14&#10;  Q 984.44 578.61 998.99 577.25&#10;  C 1007.61 576.44 1020.94 576.30 1031.66 575.18&#10;  Q 1037.76 574.55 1043.50 574.01&#10;  Q 1058.00 572.63 1070.87 570.12&#10;  Q 1075.83 569.15 1089.16 563.67&#10;  C 1091.73 562.62 1094.65 560.79 1097.91 558.66&#10;  Q 1099.59 557.56 1105.60 553.57&#10;  Q 1118.66 544.88 1129.58 531.58&#10;  Q 1141.52 517.06 1144.44 511.67&#10;  Q 1148.05 505.01 1152.13 498.62&#10;  Q 1153.29 496.81 1159.47 482.80&#10;  C 1161.34 478.58 1162.13 474.26 1163.80 470.34&#10;  C 1165.24 466.95 1165.59 462.82 1166.59 459.65&#10;  Q 1167.75 456.02 1168.25 451.57&#10;  Q 1168.73 447.22 1170.24 441.49&#10;  Q 1170.37 441.00 1170.24 440.51&#10;  Q 1169.26 436.89 1169.59 433.12&#10;  C 1181.07 427.57 1190.85 418.84 1201.00 410.73&#10;  C 1205.05 407.50 1210.28 406.84 1216.31 406.50&#10;  C 1229.93 405.73 1243.26 407.46 1257.01 409.06&#10;  Q 1263.74 409.85 1268.90 410.85&#10;  Q 1318.15 420.42 1361.62 445.61&#10;  Q 1364.39 447.21 1370.31 451.44&#10;  Z" />
    <path fill="#e32850"
        d="&#10;  M 1370.31 451.44&#10;  Q 1389.31 463.85 1403.50 476.26&#10;  Q 1417.85 488.82 1434.95 507.04&#10;  C 1441.06 513.56 1447.19 521.32 1453.11 528.05&#10;  Q 1455.19 530.43 1453.53 533.19&#10;  Q 1437.86 559.18 1420.36 584.01&#10;  Q 1405.90 585.88 1391.43 587.24&#10;  Q 1378.16 588.48 1371.65 589.83&#10;  Q 1359.22 592.41 1348.31 597.01&#10;  Q 1321.97 608.10 1293.48 623.85&#10;  Q 1256.53 644.28 1251.24 646.85&#10;  C 1229.39 657.46 1212.01 664.39 1192.29 673.01&#10;  C 1173.78 681.11 1154.35 693.77 1141.86 700.35&#10;  Q 1126.14 708.62 1091.70 725.00&#10;  Q 1081.81 729.70 1072.02 733.79&#10;  Q 1008.94 760.11 942.54 781.55&#10;  A 1.63 1.59 -16.8 0 0 941.46 783.51&#10;  Q 941.55 783.82 943.00 784.05&#10;  Q 948.51 784.89 954.00 785.56&#10;  A 0.16 0.15 -69.7 0 1 954.11 785.80&#10;  L 953.77 786.30&#10;  A 0.24 0.22 -72.3 0 1 953.58 786.41&#10;  Q 936.40 786.65 920.84 784.87&#10;  Q 881.34 780.37 827.34 775.70&#10;  C 825.60 775.55 824.31 775.48 822.69 775.13&#10;  Q 801.56 770.56 780.19 767.14&#10;  Q 756.90 761.01 750.66 758.87&#10;  Q 729.58 751.63 716.98 747.44&#10;  Q 707.04 744.13 698.18 740.65&#10;  Q 643.43 719.15 627.28 711.94&#10;  Q 611.22 704.77 605.10 702.35&#10;  Q 598.15 699.60 577.03 694.17&#10;  Q 548.64 686.87 519.28 685.60&#10;  Q 516.54 685.08 514.60 683.95&#10;  A 2.01 2.01 0.0 0 1 513.89 681.17&#10;  Q 518.81 673.00 519.00 663.94&#10;  Q 519.32 648.68 512.00 634.90&#10;  Q 517.86 639.00 526.19 641.82&#10;  Q 544.48 648.02 562.77 654.20&#10;  Q 572.07 657.35 594.30 666.89&#10;  Q 607.63 672.61 627.48 681.53&#10;  Q 637.17 685.89 645.81 689.24&#10;  Q 677.70 701.59 696.49 707.46&#10;  Q 712.52 712.47 732.38 717.38&#10;  Q 733.45 717.65 740.35 719.76&#10;  Q 744.27 720.95 748.50 721.56&#10;  Q 757.59 724.03 762.93 724.49&#10;  C 777.26 725.73 790.04 721.04 799.97 710.96&#10;  C 806.86 703.96 813.18 698.75 822.77 694.43&#10;  Q 840.95 686.25 860.72 679.51&#10;  C 871.55 675.82 884.77 672.69 895.18 670.06&#10;  Q 908.04 666.81 925.41 659.98&#10;  Q 953.72 648.84 964.26 643.89&#10;  C 989.19 632.19 1005.17 623.85 1026.03 617.54&#10;  C 1035.56 614.66 1047.15 612.09 1055.66 609.24&#10;  C 1081.19 600.72 1104.37 590.04 1130.48 578.12&#10;  Q 1139.66 573.93 1148.21 572.13&#10;  Q 1148.96 571.97 1151.54 570.60&#10;  Q 1166.16 562.80 1181.31 557.20&#10;  Q 1208.42 547.18 1235.64 537.41&#10;  Q 1255.86 530.16 1274.94 520.24&#10;  C 1280.95 533.53 1292.61 542.09 1307.31 541.31&#10;  Q 1317.14 540.79 1325.55 534.14&#10;  C 1335.52 526.26 1343.12 514.24 1341.36 501.00&#10;  Q 1339.53 487.26 1328.28 479.10&#10;  C 1335.00 481.14 1340.13 482.24 1346.57 478.28&#10;  C 1355.30 472.90 1363.97 462.42 1353.57 453.08&#10;  C 1345.67 445.98 1335.74 441.17 1325.90 436.06&#10;  Q 1323.66 434.90 1322.86 434.35&#10;  Q 1320.39 432.64 1323.16 433.80&#10;  Q 1331.33 437.24 1340.79 441.58&#10;  Q 1355.01 448.11 1370.31 451.44&#10;  Z" />
    <path fill="#e63f63"
        d="&#10;  M 1169.59 433.12&#10;  Q 1169.26 436.89 1170.24 440.51&#10;  Q 1170.37 441.00 1170.24 441.49&#10;  Q 1168.73 447.22 1168.25 451.57&#10;  Q 1167.75 456.02 1166.59 459.65&#10;  C 1165.59 462.82 1165.24 466.95 1163.80 470.34&#10;  C 1162.13 474.26 1161.34 478.58 1159.47 482.80&#10;  Q 1153.29 496.81 1152.13 498.62&#10;  Q 1148.05 505.01 1144.44 511.67&#10;  Q 1141.52 517.06 1129.58 531.58&#10;  Q 1118.66 544.88 1105.60 553.57&#10;  Q 1099.59 557.56 1097.91 558.66&#10;  C 1094.65 560.79 1091.73 562.62 1089.16 563.67&#10;  Q 1075.83 569.15 1070.87 570.12&#10;  Q 1058.00 572.63 1043.50 574.01&#10;  Q 1037.76 574.55 1031.66 575.18&#10;  C 1020.94 576.30 1007.61 576.44 998.99 577.25&#10;  Q 984.44 578.61 969.62 582.14&#10;  Q 963.44 583.61 942.70 590.89&#10;  Q 935.21 593.52 930.01 596.07&#10;  C 924.65 598.69 918.54 601.04 913.41 603.84&#10;  C 893.53 614.66 876.80 624.33 860.19 636.47&#10;  Q 849.64 644.18 837.68 653.43&#10;  C 835.72 654.94 834.18 656.65 832.24 658.00&#10;  Q 831.54 658.48 830.10 659.86&#10;  Q 801.32 687.39 783.71 704.27&#10;  C 778.38 709.39 772.87 716.31 768.78 721.02&#10;  Q 766.86 723.23 763.75 723.04&#10;  Q 763.23 723.00 763.33 722.50&#10;  Q 764.19 717.86 767.33 714.26&#10;  C 770.10 711.00 773.59 708.27 776.13 705.18&#10;  Q 783.75 695.90 786.37 693.62&#10;  C 795.67 685.53 803.36 679.37 809.10 673.35&#10;  C 811.24 671.10 813.47 667.45 815.96 664.86&#10;  Q 826.46 653.92 830.48 650.96&#10;  Q 836.06 646.85 840.68 641.68&#10;  C 845.58 636.19 848.81 634.96 855.85 631.28&#10;  Q 860.13 629.04 863.58 625.64&#10;  Q 866.56 622.71 869.56 620.55&#10;  Q 879.69 613.27 888.20 606.37&#10;  C 895.36 600.56 901.63 593.32 902.12 583.52&#10;  Q 902.54 574.84 899.08 566.90&#10;  C 896.81 561.71 891.93 562.40 887.75 564.67&#10;  Q 877.40 570.28 866.92 575.92&#10;  C 881.32 563.06 895.08 553.30 912.75 540.89&#10;  Q 920.17 535.68 929.63 530.15&#10;  Q 938.47 524.99 958.03 513.27&#10;  Q 965.06 509.06 996.83 493.12&#10;  Q 1013.00 485.02 1045.25 472.41&#10;  C 1052.24 469.68 1058.30 467.91 1067.71 464.75&#10;  Q 1075.07 462.28 1083.99 459.75&#10;  C 1091.29 457.68 1098.75 455.27 1105.79 453.30&#10;  Q 1137.99 444.28 1169.59 433.12&#10;  Z" />
    <path fill="#e95675"
        d="&#10;  M 743.40 573.63&#10;  Q 735.86 564.19 727.91 555.64&#10;  Q 708.86 535.17 682.24 526.56&#10;  Q 686.03 520.16 690.26 514.23&#10;  C 703.06 496.31 723.82 484.44 746.05 483.81&#10;  C 762.90 483.34 778.69 486.29 794.85 491.04&#10;  C 804.53 493.88 812.40 496.06 819.03 497.69&#10;  A 0.99 0.99 0.0 0 1 819.53 499.31&#10;  C 817.50 501.59 814.90 503.71 812.68 506.39&#10;  Q 791.89 531.47 773.30 549.05&#10;  Q 762.21 559.54 743.40 573.63&#10;  Z" />
    <path fill="#ea617e"
        d="&#10;  M 743.40 573.63&#10;  L 718.53 588.77&#10;  C 703.81 580.84 692.44 572.61 679.64 563.97&#10;  Q 673.81 560.03 665.24 557.54&#10;  L 682.24 526.56&#10;  Q 708.86 535.17 727.91 555.64&#10;  Q 735.86 564.19 743.40 573.63&#10;  Z" />
    <path fill="#ea617e"
        d="&#10;  M 421.18 552.21&#10;  Q 463.49 589.67 504.41 628.59&#10;  Q 506.57 630.65 512.00 634.90&#10;  Q 519.32 648.68 519.00 663.94&#10;  Q 518.81 673.00 513.89 681.17&#10;  A 2.01 2.01 0.0 0 0 514.60 683.95&#10;  Q 516.54 685.08 519.28 685.60&#10;  Q 506.78 685.32 494.27 685.66&#10;  C 488.60 685.82 486.11 686.72 481.45 689.94&#10;  C 470.75 697.33 460.74 706.36 448.90 714.03&#10;  Q 442.35 718.27 436.28 722.73&#10;  Q 405.97 744.98 398.91 750.42&#10;  Q 389.16 757.92 381.53 763.45&#10;  C 370.39 771.52 362.89 777.10 352.96 784.21&#10;  Q 341.13 792.69 327.31 803.77&#10;  Q 325.30 795.14 323.75 791.91&#10;  C 313.92 771.50 295.15 775.74 279.44 785.50&#10;  C 286.94 768.23 294.96 751.27 302.24 733.91&#10;  Q 307.40 721.61 313.41 708.82&#10;  C 316.02 703.27 318.52 695.90 321.18 690.19&#10;  Q 326.50 678.81 331.56 667.00&#10;  C 335.84 657.02 339.36 650.04 343.34 641.56&#10;  Q 345.70 636.51 345.88 631.25&#10;  Q 345.93 629.82 343.79 625.22&#10;  Q 336.43 609.34 329.66 592.88&#10;  Q 347.12 591.29 360.55 583.56&#10;  Q 372.07 576.94 380.60 573.14&#10;  Q 393.99 567.18 398.98 564.50&#10;  Q 410.19 558.49 421.18 552.21&#10;  Z" />
    <path fill="#e32850"
        d="&#10;  M 718.53 588.77&#10;  Q 704.09 596.23 690.98 600.73&#10;  Q 684.41 602.98 665.56 608.56&#10;  Q 654.71 611.77 641.91 614.36&#10;  Q 634.52 615.85 622.13 617.17&#10;  Q 612.98 618.14 595.23 620.39&#10;  Q 593.38 620.63 590.06 620.53&#10;  A 0.45 0.45 0.0 0 1 589.69 619.83&#10;  Q 589.90 619.50 590.33 619.32&#10;  Q 609.18 611.37 628.83 597.07&#10;  Q 644.65 585.55 655.32 572.32&#10;  Q 659.96 566.58 665.24 557.54&#10;  Q 673.81 560.03 679.64 563.97&#10;  C 692.44 572.61 703.81 580.84 718.53 588.77&#10;  Z" />
    <path fill="#e95675"
        d="&#10;  M 767.33 714.26&#10;  L 757.31 710.29&#10;  Q 763.47 700.41 769.28 690.29&#10;  Q 772.31 685.02 785.21 667.31&#10;  Q 790.75 659.69 796.14 652.10&#10;  Q 805.38 639.08 807.25 637.01&#10;  Q 827.64 614.49 831.60 610.03&#10;  C 836.28 604.76 841.87 599.81 846.64 595.31&#10;  C 852.07 590.20 859.88 582.10 866.92 575.92&#10;  Q 877.40 570.28 887.75 564.67&#10;  C 891.93 562.40 896.81 561.71 899.08 566.90&#10;  Q 902.54 574.84 902.12 583.52&#10;  C 901.63 593.32 895.36 600.56 888.20 606.37&#10;  Q 879.69 613.27 869.56 620.55&#10;  Q 866.56 622.71 863.58 625.64&#10;  Q 860.13 629.04 855.85 631.28&#10;  C 848.81 634.96 845.58 636.19 840.68 641.68&#10;  Q 836.06 646.85 830.48 650.96&#10;  Q 826.46 653.92 815.96 664.86&#10;  C 813.47 667.45 811.24 671.10 809.10 673.35&#10;  C 803.36 679.37 795.67 685.53 786.37 693.62&#10;  Q 783.75 695.90 776.13 705.18&#10;  C 773.59 708.27 770.10 711.00 767.33 714.26&#10;  Z" />
    <path fill="#cb1a40"
        d="&#10;  M 1420.36 584.01&#10;  Q 1405.22 604.19 1396.78 613.53&#10;  Q 1378.57 633.69 1375.53 637.03&#10;  Q 1360.25 653.81 1342.51 667.77&#10;  Q 1327.96 679.23 1314.99 688.74&#10;  Q 1290.33 706.84 1263.78 721.26&#10;  C 1254.78 726.14 1243.67 730.98 1233.48 736.00&#10;  Q 1221.31 742.00 1215.29 744.27&#10;  Q 1185.41 755.56 1171.76 760.00&#10;  C 1151.85 766.48 1132.71 770.97 1112.56 775.77&#10;  C 1075.68 784.56 1039.60 788.28 1000.85 790.97&#10;  Q 976.44 792.66 950.55 792.08&#10;  Q 893.01 790.77 835.29 780.15&#10;  Q 814.53 776.33 805.45 773.81&#10;  Q 792.88 770.31 780.19 767.14&#10;  Q 801.56 770.56 822.69 775.13&#10;  C 824.31 775.48 825.60 775.55 827.34 775.70&#10;  Q 881.34 780.37 920.84 784.87&#10;  Q 936.40 786.65 953.58 786.41&#10;  A 0.24 0.22 -72.3 0 0 953.77 786.30&#10;  L 954.11 785.80&#10;  A 0.16 0.15 -69.7 0 0 954.00 785.56&#10;  Q 948.51 784.89 943.00 784.05&#10;  Q 941.55 783.82 941.46 783.51&#10;  A 1.63 1.59 -16.8 0 1 942.54 781.55&#10;  Q 1008.94 760.11 1072.02 733.79&#10;  Q 1081.81 729.70 1091.70 725.00&#10;  Q 1126.14 708.62 1141.86 700.35&#10;  C 1154.35 693.77 1173.78 681.11 1192.29 673.01&#10;  C 1212.01 664.39 1229.39 657.46 1251.24 646.85&#10;  Q 1256.53 644.28 1293.48 623.85&#10;  Q 1321.97 608.10 1348.31 597.01&#10;  Q 1359.22 592.41 1371.65 589.83&#10;  Q 1378.16 588.48 1391.43 587.24&#10;  Q 1405.90 585.88 1420.36 584.01&#10;  Z" />
    <path fill="#e32850"
        d="&#10;  M 1313.97 802.47&#10;  C 1312.91 806.32 1310.87 814.22 1305.68 813.69&#10;  C 1297.46 812.86 1291.60 813.30 1284.48 817.62&#10;  Q 1278.02 821.54 1272.01 825.38&#10;  C 1263.69 830.69 1253.13 835.46 1245.03 840.34&#10;  Q 1233.20 847.46 1223.74 860.08&#10;  Q 1219.88 865.22 1218.93 866.78&#10;  Q 1214.47 874.13 1201.62 893.57&#10;  Q 1192.87 906.81 1189.35 910.87&#10;  Q 1176.42 925.75 1159.36 947.70&#10;  C 1150.94 958.55 1140.11 962.68 1126.73 962.00&#10;  C 1117.41 961.54 1108.11 960.38 1098.69 960.46&#10;  Q 1095.05 960.49 1084.63 957.85&#10;  Q 1084.07 957.71 1084.21 958.19&#10;  L 1084.40 958.88&#10;  Q 1084.69 959.92 1084.22 958.95&#10;  Q 1079.81 949.88 1074.25 939.92&#10;  C 1072.02 935.93 1071.43 930.08 1069.12 925.61&#10;  Q 1064.36 916.43 1060.24 907.57&#10;  C 1057.54 901.74 1054.69 893.30 1053.14 889.07&#10;  C 1050.04 880.61 1045.48 871.60 1041.91 862.69&#10;  Q 1040.99 860.41 1038.11 857.36&#10;  L 1021.98 813.42&#10;  A 0.50 0.49 -12.1 0 1 1022.41 812.76&#10;  C 1032.35 812.08 1040.17 811.71 1050.51 810.46&#10;  Q 1070.07 808.08 1074.27 807.57&#10;  Q 1098.18 804.71 1121.75 799.73&#10;  Q 1130.12 797.97 1157.17 791.16&#10;  Q 1168.87 788.22 1208.77 774.75&#10;  Q 1213.02 773.32 1226.57 768.08&#10;  C 1247.64 759.94 1267.71 750.50 1288.85 739.67&#10;  Q 1290.61 738.77 1291.15 740.67&#10;  Q 1294.48 752.28 1298.53 762.91&#10;  Q 1306.10 782.78 1313.97 802.47&#10;  Z" />
    <path fill="#bf193c"
        d="&#10;  M 655.32 1062.25&#10;  Q 652.18 1052.28 648.09 1046.10&#10;  Q 641.76 1036.53 638.26 1030.61&#10;  Q 629.73 1016.21 628.23 1000.63&#10;  C 627.55 993.48 627.47 984.51 626.00 977.05&#10;  Q 624.37 968.72 621.05 960.38&#10;  C 618.03 952.80 616.48 948.87 619.52 941.97&#10;  C 622.28 935.70 626.51 929.93 630.17 924.14&#10;  Q 635.03 916.44 636.18 907.44&#10;  Q 652.50 884.98 658.74 876.01&#10;  Q 666.78 864.46 681.23 842.58&#10;  Q 686.99 833.85 692.00 825.73&#10;  Q 713.96 790.15 723.90 772.22&#10;  Q 724.99 770.27 725.54 768.84&#10;  A 1.40 1.40 0.0 0 1 727.50 768.11&#10;  C 730.62 769.75 734.44 771.86 738.07 773.30&#10;  Q 749.70 777.91 761.99 781.63&#10;  C 765.55 782.71 768.95 784.25 771.68 786.09&#10;  A 2.02 2.02 0.0 0 1 772.48 788.36&#10;  C 771.77 790.70 770.73 793.04 770.07 795.35&#10;  Q 760.89 827.68 748.16 863.86&#10;  C 744.62 873.93 739.52 886.83 735.44 897.95&#10;  C 729.83 913.27 721.07 933.68 717.28 943.22&#10;  C 711.87 956.82 705.39 969.30 698.83 982.14&#10;  Q 677.01 1024.88 668.80 1040.05&#10;  Q 664.95 1047.17 655.32 1062.25&#10;  Z" />
    <path fill="#e32850"
        d="&#10;  M 327.31 803.77&#10;  Q 294.47 828.17 261.54 852.56&#10;  C 255.93 856.71 249.26 862.51 245.48 865.58&#10;  Q 243.29 867.36 244.08 864.65&#10;  Q 244.85 862.02 245.16 861.41&#10;  Q 251.57 848.71 257.09 835.68&#10;  C 264.30 818.67 272.16 802.28 279.44 785.50&#10;  C 295.15 775.74 313.92 771.50 323.75 791.91&#10;  Q 325.30 795.14 327.31 803.77&#10;  Z" />
    <path fill="#cb1a40"
        d="&#10;  M 1313.97 802.47&#10;  Q 1328.90 841.67 1345.79 880.01&#10;  Q 1350.13 889.88 1353.74 898.37&#10;  Q 1367.99 931.94 1383.21 965.08&#10;  Q 1389.29 978.32 1395.84 991.16&#10;  Q 1397.41 1005.62 1397.80 1014.98&#10;  Q 1398.34 1027.87 1390.30 1037.85&#10;  Q 1382.14 1047.98 1380.31 1051.23&#10;  Q 1377.40 1056.42 1373.83 1062.43&#10;  Q 1370.48 1068.06 1361.98 1074.41&#10;  C 1349.02 1084.09 1333.88 1094.41 1321.23 1106.04&#10;  C 1312.72 1113.86 1302.10 1126.69 1294.88 1133.83&#10;  Q 1279.03 1149.50 1257.79 1159.69&#10;  Q 1248.65 1164.07 1237.33 1163.58&#10;  C 1223.41 1162.98 1211.97 1158.57 1200.60 1150.78&#10;  Q 1199.20 1149.81 1198.07 1147.45&#10;  Q 1197.84 1146.97 1197.41 1146.66&#10;  C 1194.55 1144.60 1192.59 1141.40 1190.87 1139.45&#10;  Q 1187.40 1135.52 1183.78 1130.34&#10;  Q 1179.99 1124.94 1176.96 1121.13&#10;  Q 1171.54 1114.32 1165.80 1104.58&#10;  C 1165.13 1103.43 1163.72 1102.70 1163.27 1101.87&#10;  C 1160.45 1096.71 1157.73 1093.31 1154.70 1089.04&#10;  C 1150.41 1082.97 1146.80 1073.08 1139.90 1069.01&#10;  C 1135.13 1061.52 1130.87 1053.65 1126.45 1046.24&#10;  Q 1120.52 1036.29 1116.96 1029.67&#10;  Q 1098.26 994.82 1086.04 968.50&#10;  Q 1076.07 947.02 1073.90 942.45&#10;  Q 1068.77 931.58 1065.59 924.27&#10;  Q 1052.78 894.77 1041.64 866.62&#10;  Q 1039.85 862.09 1038.11 857.36&#10;  Q 1040.99 860.41 1041.91 862.69&#10;  C 1045.48 871.60 1050.04 880.61 1053.14 889.07&#10;  C 1054.69 893.30 1057.54 901.74 1060.24 907.57&#10;  Q 1064.36 916.43 1069.12 925.61&#10;  C 1071.43 930.08 1072.02 935.93 1074.25 939.92&#10;  Q 1079.81 949.88 1084.22 958.95&#10;  Q 1084.69 959.92 1084.40 958.88&#10;  L 1084.21 958.19&#10;  Q 1084.07 957.71 1084.63 957.85&#10;  Q 1095.05 960.49 1098.69 960.46&#10;  C 1108.11 960.38 1117.41 961.54 1126.73 962.00&#10;  C 1140.11 962.68 1150.94 958.55 1159.36 947.70&#10;  Q 1176.42 925.75 1189.35 910.87&#10;  Q 1192.87 906.81 1201.62 893.57&#10;  Q 1214.47 874.13 1218.93 866.78&#10;  Q 1219.88 865.22 1223.74 860.08&#10;  Q 1233.20 847.46 1245.03 840.34&#10;  C 1253.13 835.46 1263.69 830.69 1272.01 825.38&#10;  Q 1278.02 821.54 1284.48 817.62&#10;  C 1291.60 813.30 1297.46 812.86 1305.68 813.69&#10;  C 1310.87 814.22 1312.91 806.32 1313.97 802.47&#10;  Z" />
    <path fill="#cb1a40"
        d="&#10;  M 636.18 907.44&#10;  Q 635.03 916.44 630.17 924.14&#10;  C 626.51 929.93 622.28 935.70 619.52 941.97&#10;  C 616.48 948.87 618.03 952.80 621.05 960.38&#10;  Q 624.37 968.72 626.00 977.05&#10;  C 627.47 984.51 627.55 993.48 628.23 1000.63&#10;  Q 629.73 1016.21 638.26 1030.61&#10;  Q 641.76 1036.53 648.09 1046.10&#10;  Q 652.18 1052.28 655.32 1062.25&#10;  Q 646.09 1077.19 639.48 1086.73&#10;  Q 619.92 1114.96 605.86 1132.65&#10;  Q 599.79 1140.30 593.51 1147.77&#10;  Q 587.13 1155.37 580.48 1162.28&#10;  Q 557.54 1186.15 532.32 1207.55&#10;  Q 525.58 1204.79 521.51 1202.37&#10;  Q 509.49 1195.25 495.13 1184.76&#10;  Q 486.73 1178.63 482.55 1174.02&#10;  C 470.71 1160.98 465.08 1145.51 467.49 1127.76&#10;  Q 468.15 1122.88 470.01 1110.85&#10;  C 470.87 1105.27 470.85 1096.83 462.06 1100.27&#10;  Q 457.30 1102.14 452.45 1105.01&#10;  Q 425.00 1121.28 407.87 1130.78&#10;  Q 395.81 1137.47 383.70 1142.72&#10;  C 377.61 1145.35 371.25 1147.53 364.94 1147.27&#10;  Q 391.05 1135.20 408.60 1124.35&#10;  Q 433.98 1108.67 446.75 1099.74&#10;  Q 452.09 1096.01 471.70 1080.96&#10;  Q 478.01 1076.12 505.85 1052.20&#10;  Q 513.73 1045.42 520.64 1038.76&#10;  Q 546.91 1013.45 561.99 997.24&#10;  Q 571.46 987.06 595.70 959.30&#10;  C 609.70 943.27 620.40 926.38 636.18 907.44&#10;  Z" />
    <path fill="#bf193c"
        d="&#10;  M 1139.90 1069.01&#10;  C 1146.80 1073.08 1150.41 1082.97 1154.70 1089.04&#10;  C 1157.73 1093.31 1160.45 1096.71 1163.27 1101.87&#10;  C 1163.72 1102.70 1165.13 1103.43 1165.80 1104.58&#10;  Q 1171.54 1114.32 1176.96 1121.13&#10;  Q 1179.99 1124.94 1183.78 1130.34&#10;  Q 1187.40 1135.52 1190.87 1139.45&#10;  C 1192.59 1141.40 1194.55 1144.60 1197.41 1146.66&#10;  Q 1197.84 1146.97 1198.07 1147.45&#10;  Q 1199.20 1149.81 1200.60 1150.78&#10;  C 1211.97 1158.57 1223.41 1162.98 1237.33 1163.58&#10;  Q 1248.65 1164.07 1257.79 1159.69&#10;  Q 1279.03 1149.50 1294.88 1133.83&#10;  C 1302.10 1126.69 1312.72 1113.86 1321.23 1106.04&#10;  C 1333.88 1094.41 1349.02 1084.09 1361.98 1074.41&#10;  Q 1370.48 1068.06 1373.83 1062.43&#10;  Q 1377.40 1056.42 1380.31 1051.23&#10;  Q 1382.14 1047.98 1390.30 1037.85&#10;  Q 1398.34 1027.87 1397.80 1014.98&#10;  Q 1397.41 1005.62 1395.84 991.16&#10;  Q 1419.20 1037.36 1437.84 1069.65&#10;  Q 1449.44 1089.74 1470.01 1119.66&#10;  Q 1486.26 1143.30 1505.66 1165.91&#10;  C 1510.84 1171.95 1516.98 1177.27 1522.73 1183.33&#10;  Q 1537.42 1198.81 1554.28 1212.06&#10;  Q 1593.50 1242.89 1641.82 1256.15&#10;  Q 1652.10 1258.97 1662.42 1259.32&#10;  A 0.55 0.55 0.0 0 1 1662.84 1260.20&#10;  C 1660.47 1263.36 1655.35 1263.72 1649.42 1264.89&#10;  Q 1645.49 1265.67 1641.06 1266.86&#10;  Q 1589.78 1280.65 1540.74 1284.82&#10;  Q 1525.23 1286.14 1522.34 1286.41&#10;  Q 1513.42 1287.25 1503.91 1287.42&#10;  Q 1472.70 1288.00 1447.14 1285.60&#10;  Q 1433.43 1284.32 1413.81 1280.71&#10;  C 1373.39 1273.27 1335.79 1259.13 1301.43 1239.12&#10;  Q 1298.50 1237.41 1285.91 1229.82&#10;  Q 1277.59 1224.81 1271.33 1220.16&#10;  Q 1256.59 1209.21 1254.94 1207.74&#10;  Q 1227.01 1182.92 1204.70 1158.34&#10;  Q 1197.75 1150.69 1191.64 1143.05&#10;  Q 1163.40 1107.72 1139.90 1069.01&#10;  Z" />
    <path fill="#e32850"
        d="&#10;  M 532.32 1207.55&#10;  Q 514.86 1223.20 496.93 1233.93&#10;  Q 483.88 1241.73 462.71 1252.63&#10;  Q 425.88 1271.58 387.34 1279.87&#10;  Q 382.77 1280.85 366.68 1283.57&#10;  C 356.49 1276.22 349.15 1270.36 342.60 1261.82&#10;  Q 334.25 1250.95 325.41 1240.75&#10;  C 320.76 1235.39 316.31 1229.55 313.14 1223.70&#10;  Q 310.94 1219.63 305.19 1207.34&#10;  C 299.86 1195.93 291.44 1190.40 279.31 1185.39&#10;  Q 278.83 1185.19 278.33 1185.28&#10;  Q 273.16 1186.18 257.76 1188.59&#10;  C 246.20 1190.40 229.40 1190.09 219.12 1190.90&#10;  Q 212.33 1191.44 203.67 1191.04&#10;  Q 197.95 1190.77 188.15 1190.99&#10;  Q 182.98 1191.10 169.67 1188.55&#10;  Q 168.98 1188.42 169.50 1188.19&#10;  Q 169.70 1188.10 169.78 1187.96&#10;  Q 169.89 1187.76 169.71 1187.35&#10;  Q 168.11 1183.51 164.71 1181.09&#10;  C 185.43 1183.77 202.97 1185.23 223.25 1183.96&#10;  Q 251.81 1182.18 259.78 1180.86&#10;  C 273.60 1178.58 286.33 1175.44 299.44 1171.83&#10;  Q 323.51 1165.21 335.87 1159.87&#10;  Q 350.42 1153.60 364.94 1147.27&#10;  C 371.25 1147.53 377.61 1145.35 383.70 1142.72&#10;  Q 395.81 1137.47 407.87 1130.78&#10;  Q 425.00 1121.28 452.45 1105.01&#10;  Q 457.30 1102.14 462.06 1100.27&#10;  C 470.85 1096.83 470.87 1105.27 470.01 1110.85&#10;  Q 468.15 1122.88 467.49 1127.76&#10;  C 465.08 1145.51 470.71 1160.98 482.55 1174.02&#10;  Q 486.73 1178.63 495.13 1184.76&#10;  Q 509.49 1195.25 521.51 1202.37&#10;  Q 525.58 1204.79 532.32 1207.55&#10;  Z" />
    <path fill="#ea617e"
        d="&#10;  M 164.71 1181.09&#10;  Q 168.11 1183.51 169.71 1187.35&#10;  Q 169.89 1187.76 169.78 1187.96&#10;  Q 169.70 1188.10 169.50 1188.19&#10;  Q 168.98 1188.42 169.67 1188.55&#10;  Q 182.98 1191.10 188.15 1190.99&#10;  Q 197.95 1190.77 203.67 1191.04&#10;  Q 212.33 1191.44 219.12 1190.90&#10;  C 229.40 1190.09 246.20 1190.40 257.76 1188.59&#10;  Q 273.16 1186.18 278.33 1185.28&#10;  Q 278.83 1185.19 279.31 1185.39&#10;  C 291.44 1190.40 299.86 1195.93 305.19 1207.34&#10;  Q 310.94 1219.63 313.14 1223.70&#10;  C 316.31 1229.55 320.76 1235.39 325.41 1240.75&#10;  Q 334.25 1250.95 342.60 1261.82&#10;  C 349.15 1270.36 356.49 1276.22 366.68 1283.57&#10;  Q 295.13 1294.81 228.29 1268.47&#10;  Q 224.46 1266.96 211.53 1261.10&#10;  Q 202.61 1257.05 195.14 1252.85&#10;  Q 169.23 1238.28 158.79 1231.06&#10;  Q 150.60 1225.40 129.69 1208.52&#10;  Q 121.84 1202.18 115.05 1195.32&#10;  Q 94.01 1174.06 79.44 1157.23&#10;  Q 78.13 1155.73 77.65 1153.97&#10;  Q 77.48 1153.35 78.02 1153.69&#10;  Q 84.39 1157.71 91.51 1160.78&#10;  C 107.46 1167.65 124.10 1173.61 140.39 1176.87&#10;  Q 146.53 1178.10 164.71 1181.09&#10;  Z" />
</svg>