<svg id="圖層_1" height="512" viewBox="0 0 500 500" width="512" xmlns="http://www.w3.org/2000/svg" data-name="圖層 1"><path d="m423.35 137.82c-4.71-15.14-14.18-28.07-26.19-38.28-10.09-8.54-23.28-15.39-35.64-10.75-4.06-16.38-10.7-32.06-21-45.55a95.17 95.17 0 0 0 -49.85-33.41 131.77 131.77 0 0 0 -119.03 25.17c-17 14-27.8 33.5-32.25 54.85a25.61 25.61 0 0 0 -13.34-2.72c-8.87.64-16.55 5.81-23.25 11.28a84.59 84.59 0 0 0 -16.62 17.95c-8.6 12.73-13.37 27.7-12.4 43.11 1 15.07 5.8 30 12.7 43.32 8.52 16.43 20.52 30.88 36.62 40.09s34.72 15.31 53.4 16.45a347.05 347.05 0 0 0 -1.15 44.33c.66 14.47 2.05 28.89 2.48 43.37.29 9.74.79 19.58-.82 29.22-1.57 9.42-4.24 18.6-6 28-1.73 9-2.38 17.91-.74 27 1.76 9.79 5.52 19.43 5.75 29.45a21.31 21.31 0 0 1 -.74 7.37c-.63 1.75-2 3-3.13 4.53-2.07 2.82-3.21 5.76-2.49 9.3 1.32 6.47 7.49 9.64 13.35 11.16 12.11 3.15 26.52 2 38.71.14 7-1.08 16.55-3.35 20.81-9.57s3.05-14.63 2.77-21.63c-.35-9.05-5.17-16.58-7.31-25.17-2.45-9.79 2.64-21.77 6.38-30.68 3.12-7.43 6.64-17.24 13.93-21.7 4.06-2.48 10-3.11 11.83 2.14s1.26 11.22.5 16.46c-1.5 10.28-5 20.79-2.69 31.23 2.16 9.71 8.27 18.14 9.23 28.12-4.91 6-9.28 13.06-5.33 20.85 5 9.91 17.87 9.56 27.51 10.17 15 .94 46.94 2.41 48.7-18.56 1.31-15.64-3.56-31.08-2.63-46.67 1.7-28.47 5.43-56.82 5.75-85.37.34-29.74-3-60.56-10.94-89.36 26.85-6.26 54.51-19.32 69.81-42.85 13.44-20.69 20.79-48.7 13.31-72.79zm-15.11 55.5c-6.44 13.59-16.13 25.38-29.15 33.08a153.16 153.16 0 0 1 -46 17.93 3.49 3.49 0 0 0 -2.83 2.57 5.18 5.18 0 0 0 .07 3.18c10 33.64 13.05 70 11.45 104.94-.83 18.09-2.73 36.11-4.16 54.15-.94 11.71-1.6 22.79-.35 34.44 1 9.47 3.22 20.05 1.67 29.55-.77 4.69-5.93 6.83-10.55 8.19-7.25 2.12-15.16 2.29-22.65 2.22a124.44 124.44 0 0 1 -22.71-2c-7.62-1.5-1.32-8.24 1.37-11.82 3.29-4.37 1.45-10.57 0-15.48-2-6.47-5.34-12.43-7.28-18.91-2.17-7.23-.19-14.95 1.2-22.17 1.44-7.53 2.52-15.11 1.39-22.76-.94-6.32-3.12-12.61-9-15.94-5.23-3-11.8-2.47-17 .33-10.52 5.65-15.68 20.05-19.55 30.43-2.77 7.46-5.31 15.52-5.79 23.5-.41 6.83 2.17 13.15 4.6 19.38a53.24 53.24 0 0 1 3.52 19.13c.07 2.6.21 5.48-.81 7.93-1.26 3-4.32 4.31-7.2 5.42-10.22 3.93-22.61 4.38-33.49 4a50.14 50.14 0 0 1 -12.5-1.57c-1.12-.33-2.14-.89-3.23-1.25-.51-.17-.79-.67-.91-.72.48-1.16 3.22-3.86 4-5.07 3.46-5.55 2.94-13.66 2.06-19.87-1.08-7.67-3.38-15.08-5-22.64-3.14-14.86 1.12-29.14 4.38-43.6 3.32-14.7 3.39-29 2.88-44-.74-22-3.35-43.89-2.47-66 .31-7.89.95-15.76 1.68-23.62a7.39 7.39 0 0 0 0-1.41c-.16-2.63-1.94-5.41-4.74-5.44-17.7-.16-35.18-5-50.91-13-13.86-7-24.32-17.44-32.41-30.69-7.69-12.61-13.21-27-14.79-41.73a60 60 0 0 1 10.46-40.4 81.84 81.84 0 0 1 15.69-16.92c6.63-5.43 15.64-11.44 24.67-9 16.07 4.27 21.35 28.91 6.05 37.38-6.33 3.5-13.6 4.86-17.93 11.2-3.17 4.64-3.8 10.32-2.91 15.76a46.13 46.13 0 0 0 12.11 24c18.55 18.53 50.66 19.42 75.13 15.93a94.67 94.67 0 0 0 13.11 3.05c6.17 1 4.57-9.19-.69-10-30.38-4.92-56.57-26.47-67.85-55.12 5.71-6 8-15 7.09-23.09a36 36 0 0 0 -10.22-20.79c3.41-18.3 11.8-35.44 25.41-48.34a122.79 122.79 0 0 1 48.43-27.78c18.7-5.62 39.77-5.95 58.9-2.48s36.85 12.44 49.86 27c12.38 13.83 19.38 31.17 23.43 49.07-11.5 9.61-15.46 26.28-8.3 39.79a24.82 24.82 0 0 0 5.85 7.31c-6.26 21-19.42 46.07-42.49 51-2.44.53-3.22 2.59-2.93 4.71a5.4 5.4 0 0 0 2.94 4.76 4 4 0 0 0 2.1.62 53.63 53.63 0 0 0 26.72-.43 71.22 71.22 0 0 0 18.14-7.72c7-4.21 15-9.79 20.13-16.25 4.46-5.6 6.31-14.37 5.19-21.3a21.68 21.68 0 0 0 -8.57-14c-5.77-4.29-14.34-4.88-18.62-11.05-8.49-12.23 1.48-31.86 15.93-33.59 8.79-1.05 16.61 4.68 23 10a74.21 74.21 0 0 1 14.14 15.62c14.45 21.71 12 47.67 1.24 70.38zm-264.52-48.7a103.29 103.29 0 0 0 42.86 48.55 123.64 123.64 0 0 1 -18.65-1.17c-12.07-1.66-26-5.41-33.75-15.61-4.61-6.08-9.7-17.36-4-24.09 3.34-3.98 8.68-5.47 13.54-7.68zm225.36 24.7c-5.46 7.09-14.38 13-22.22 17a62.51 62.51 0 0 1 -15.23 5.68c14-11.16 22.88-29.38 28.06-46.22.94.44 1.9.87 2.88 1.28 5.47 2.3 10.12 4.9 9.91 11.46a21.56 21.56 0 0 1 -1.48 6.77c-.38 1-.84 2-1.32 3a11.46 11.46 0 0 0 -.6 1.03z"/><path d="m271.55 243.36a8.78 8.78 0 0 0 .66-1.3c2.23-5.62.8-13.7.79-19.59a6.09 6.09 0 0 0 -4.83-5.58 49.92 49.92 0 0 0 -26.57 1.61 4 4 0 0 0 -2.51 2.39 3.86 3.86 0 0 0 -1.42 3.63c.61 3.84 1.21 7.69 1.83 11.54.45 2.8.78 5.67 2.61 8v.07c.17 15.74.41 32.28 3.54 47.76 1.55 7.66 5.93 12.1 12.08 16.52q5.32 3.83 10.68 7.64c2.76 2 6.17 5.35 9.63 6 6.8 1.31 9-9.91 10.44-14.52 2.43-7.84 3.63-14-.23-21.47a244.2 244.2 0 0 1 -16.7-42.7zm-7.5-17.15q0 3.39 0 6.77c0 1.88.49 3.21-1.41 4.2-1.11.58-5.19.29-6.18.3-1.92 0-3.85 0-5.77 0l-1.92-.07c-1.38 0-1.48-.09-.29-.18-.71-1-.57-3.6-.76-4.8-.25-1.54-.49-3.08-.73-4.62a44.65 44.65 0 0 1 17.06-1.6zm17.63 70a46.13 46.13 0 0 1 -2.4 8.64 43.54 43.54 0 0 1 -2.43 6.59c-2.1-1.11-4.59-3.57-6.17-4.69l-8.39-6c-2.28-1.63-5.44-3.31-6.84-5.86-1.54-2.78-1.57-6.46-1.93-9.55a370.56 370.56 0 0 1 -2.4-37.67c2.42.1 4.88-.09 7-.13 1.82 0 3.79 0 5.68-.17a274.65 274.65 0 0 0 11.2 30.78c2.44 5.51 7.5 11.98 6.68 18.04z"/><path d="m229.15 101.62c1.09-6-8.51-11.32-9.83-4a61.52 61.52 0 0 0 .91 26c1.65 6.72 11.26 5.76 9.43-1.66a48 48 0 0 1 -.51-20.34z"/><path d="m277 122.87a120.45 120.45 0 0 1 .62-22.06 7 7 0 0 0 -4-7.26 4.15 4.15 0 0 0 -5.81 3.22 135.79 135.79 0 0 0 -.76 24.85c.38 6.38 10.43 8.9 9.95 1.25z"/><path d="m226.22 62.76c-4 3.08-11.05 6.84-15.54 2.39-4.87-4.81-10.21 2-5.77 6.41 7.68 7.59 18.22 6.75 26.43.44 4.42-3.4-.78-12.59-5.12-9.24z"/></svg>