<svg id="圖層_1" enable-background="new 0 0 500 500" height="512" viewBox="0 0 500 500" width="512" xmlns="http://www.w3.org/2000/svg"><g><path d="m324 301c-.2 0-.3 0-.4.1-.1 0-.2.1-.3.1-.1.1.3.2.7-.2z"/><path d="m476.5 482.1c.2.9.4.6 0 0z"/><path d="m273.7 371.4c.1-.5 0-.4 0 0z"/><path d="m217.9 135.6c-.4 4.3 6.5 8.1 7 2.9.7-7.3-.5-14.5.2-21.8.4-4.3-6.5-8.1-7-2.9-.7 7.3.5 14.5-.2 21.8z"/><path d="m164.1 137.1c-.2 2.1.8 4.4 2.9 5.2 1.7.7 4-.2 4.2-2.3.6-8 0-15.8-2-23.5-1.2-4.8-8.1-4.1-6.8 1.2 1.6 6.3 2.2 12.8 1.7 19.4z"/><path d="m495.5 389.4v-.1c.1-.7 0-1.3-.3-1.9-.4-3.8-.2-7.7-.2-11.4-.1-2.4.2-5.5-.3-8.2.5-.6.7-1.6.4-2.8-.8-3.5-3.1-7-4.7-10.2-3.3-6.6-6.6-13.1-9.9-19.6-3.3-6.4-6.6-12.9-9.9-19.3-1.1-2.2-2.3-4.4-3.4-6.7-.2-.4-.7-1.7-1-2.3.7-2.7 1.4-5.3 2.1-8 6.9-26.5 13.6-53.1 19.1-79.9.9-4.7 3.9-12.1 1.9-16.6-1.6-3.4-4.5-8.1-7.5-10.9-.4-1.2-1.2-2.2-2.3-2.7-14.9-6.6-29.9-13.2-44.8-19.7-1.5-.7-3.4.2-3.6 2-2.1 25.5-4.6 50.9-7.5 76.3-3.4-.6-7.3-.2-10.3-.3-9.5-.4-19-.6-28.5-.9-22-.5-43.9-1-65.9-1-5.1 0-10.9-.6-16 .2-2.6-7.1-5.4-14.1-8.6-21-6.3-13.9-13.1-30.1-24.3-40.7-3.3-3.2-7.4-5.6-11.7-6.7 17.1-28.4 18.5-64.6 5.7-95-13.9-33-43.1-54.8-77.4-63.5-35.5-9-75.3-4.2-106.5 15.4-28.9 18.1-49.7 49.8-52 84.2-2.3 34.8 15.6 70 46.1 87.1-26 38-50 78.8-62.6 123.3-7.3 25.8-10.5 53.8-3 80 8.3 28.9 30.2 52.2 58.1 63.1 19.4 7.5 40.9 2.9 57.5-8.9 21-14.9 32-39.1 38.9-63.3 11.6 23.4 15 54.4 40.4 66.8 16.4 8 37.3 4 53.9-1.3 7.3-2.3 14.1-6.4 16.1-14.3 1.8-7.1-1.7-13.3-8-16.6-3.3-1.7-7.4-2.5-10.3-4.8-3.8-3.1-4.6-8.6-5-13.2-1-10.1-1.7-20.1-3.4-30.1-2.5-14-6-27.9-10.9-41.4 6-1.1 12-2.5 17.9-4.1 1.7 1.9 3.3 4.1 4.8 6.3-.1.3-.1.6-.1 1 .2 11.3.4 22.5.6 33.8.1 7.8.3 15.7.3 23.5 0 2.8.1 5.5.1 8.3 0 .7-.1 1.6 0 2.3v.1c-.3 1.3.2 3 1 3.8 1.9 2.1 4.7 4.1 6 6.6.7 1.3 1.6 1.9 2.6 2 .2 0 .3.1.5.1 3.1.4 6.3.7 9.4 1.1.7.1 1.7-.2 2.1-.8 1.8-2.6 1-7.6.9-10.5-.1-6.8-.3-13.5-.6-20.3-.2-5.3-.5-10.7-.8-16 1.7 2.8 3.4 5.6 5.1 8.4.1.2.2.3.4.5 1.3 18.9 1.4 37.9 1.8 56.9.1 6.8.1 13.6.6 20.4.1 1.7.3 3.2 1 4.7.9 1.8 2.4 3.5 3.7 5 .7.9 1.5 1.7 2.3 2.6 1.2 1.4 1.1 2.6 1 .3.1 2.1 2 3.5 3.6 3.6.5.5 1.2.8 1.9.9 3.4.2 6.8.5 10.2.7 1.5.1 2.5-.8 2.8-2.2.9-3.9.5-8.3.5-12.3 0-7.3-.1-14.7-.2-22-.3-18.7-.8-37.4-1.3-56.1h.2c16.6-.1 33.2.1 49.9.2 25.4.2 50.8.6 76.3.5.1 3.2.1 6.3.1 9.5 0 3.5.7 8.3.1 11.8-.6 1.3 0 3.4.8 4.3 1.9 2.1 4.7 4.1 6 6.6.7 1.3 1.6 1.9 2.6 2 .2 0 .3.1.5.1 3.1.4 6.3.7 9.4 1.1.7.1 1.7-.2 2.1-.8 1.3-1.8 1-4.4 1.1-6.5.1-4.1.1-8.2 0-12.3-.1-5.3.1-10.8-.2-16.2 1.4 0 2.8-.1 4.1-.1 1.2 19 1.4 38 1.6 57 .1 6.3.1 12.5.1 18.8 0 .4.1 1.9 0 .3.1 1.8.1 3.2 1 4.8.9 1.8 2.4 3.3 3.8 4.7.8.8 1.6 1.7 2.5 2.3.3.2.5.5.7.6-.1-.3-.2-.8-.3-1.5.3 1.9 2 3.3 3.5 3.6.5.5 1.2.9 1.9 1 3.4.2 6.8.5 10.2.7 1.5.1 2.5-.8 2.8-2.2.9-3.9.5-8.3.5-12.3 0-7.3-.1-14.7-.2-22-.3-19-.8-38-1.3-57 0-.1 0-.2 0-.3 1 .2 1.9-.6 1.7-2.4zm-6.6 89.4c-1.6-.1-3.1-.2-4.7-.3-1.4-28.4-1.1-56.9-2.6-85.4 2-.1 3.9-.2 5.9-.4.4 18.1.9 36.3 1.2 54.4.1 7.2.2 14.5.2 21.7.1 3.2.4 6.7 0 10zm-24.1-161.9c3.3 6.4 6.6 12.8 9.8 19.2 3.3 6.5 6.7 13.1 10 19.7.9 1.8 2.2 4.2 3.2 6.3-.5 0-1 0-1.5 0-5.1-.1-10.3-.2-15.4-.3-17.7-.2-35.3-.4-53-.6-37.2-.4-74.5-.5-111.7-1.5-4.3-.1-8.8-.7-13.1-.6-.3-.3-.9-.9-1.1-1.1-1-1.1-2.1-2.2-3.1-3.4-5.7-6.4-10.9-13.3-15.5-20.5 4.2-1.5 8.4-3.2 12.6-4.9 4.2 6.2 8.8 12.3 12.6 18.7.9 1.5 2.6 2.2 3.9 1.8 50.7-.1 101.4-1.6 152-4.3 1.5-.1 2-1.7 2-3 1.7-3.7 2.4-8.5 3.4-12.3 1.3-4.9 2.7-9.7 4-14.6.4.5.6 1 .9 1.4zm-172 42.1c-.4-.1-.5-.2 0 0zm30.3-57.8c.1 0 .2 0 .2-.1 0 0 .1-.1.3-.1.6-.3 1-.9 1.2-1.9-.2 1-.5 1.5-.8 1.8h.6c1.1.1 2.4-.1 3.5-.2 3.8-.1 7.6-.1 11.5-.1 11.1 0 22.3.1 33.4.2 10.8.1 21.6.3 32.4.5 3.5.1 7 .1 10.5.2.9 0 2 .2 2.9.1.8 1.1 3.3 3 4.4 4.1 2.7 2.7 5.5 5.3 8.2 8 3.8 3.7 7.7 7.5 11.6 11.1-45.6 2.7-91.3 5.1-136.9 6-.8 0-1.7-.1-2.6 0-.8-1.6-1.9-3.1-2.7-4.5-.6-1.1-1.2-2.2-1.8-3.3 3.9-2.1 7.6-4.4 11.1-7.1 5-3.7 10.1-8.8 13-14.7zm95.7.5c1-.1.5.2 0 0zm-114.6 41.2c0-1.7 0-3.4.1-4.9 6.3.5 13.2-.4 19.4-.7 28.1-1 56.2-2.2 84.3-3.6 13.6-.7 27.3-1.3 40.9-2.1.5 2.4.6 4.8 1 7.2-48.5 2.5-97.1 3.9-145.7 4.1zm-10.8-17c1.4 2.7 3.5 5.4 4.7 7.6.1.2.2.4.3.6-.1.8-.1 1.7-.2 2.5-2.2-3.3-4.5-6.5-6.8-9.7.7-.3 1.4-.7 2-1zm190.6-121.5c-.4-.5-.5 1.8-.6 2.7-.2 1.2-.4 2.4-.7 3.6-.6 2.9-1.1 5.8-1.8 8.7-2.6 12.5-5.5 25-8.5 37.4-5.5 22.7-11.4 45.3-17.5 67.8-.3 1-.6 2-.9 3.1 8.4-36.9 16.1-74 23.6-111.1 1.1-5.5 2.3-11.1 3.3-16.7.1.1.1.2.2.2.8 1.3 2.1 2.8 2.9 4.3zm-47.1-27.4c12.8 5.7 25.7 11.3 38.5 17-6.2 37.8-15.4 75.2-23.5 112.6-1.1 5.2-2.3 10.5-3.4 15.7-8.5-7.9-16.4-16.5-25.1-24.2 5.7-40.2 10.2-80.6 13.5-121.1zm-119.7 75.1c9.8 0 19.6.1 29.3.2 21 .3 42.1.7 63.1 1.5 3.8.1 7.5.3 11.3.5.6 0 1.3.1 1.9.1-1.6 13.5-3.4 26.9-5.3 40.4-3.2-.6-6.9-.1-9.9-.1-23.1-.5-46.3-.9-69.4-.8-4.3 0-8.7 0-13 .2.2-1.4.2-2.9.1-4.4-.7-8.8-6.8-15.6-14.5-19.1-1.7-6.2-3.5-12.3-5.6-18.3 4-.6 8.2-.2 12-.2zm-74.4 147.7c.9 7.7.6 15.9 2.6 23.4 1.7 6.3 5.4 11.1 11.3 13.9 3 1.4 6.8 2.1 9.2 4.3 3.8 3.4 1.3 9-1.8 11.9-5.9 5.6-16.3 6.9-24 8.5-8.5 1.7-17.5 2.7-26.1 1.1-16.8-3.2-25.9-17-31.9-31.8-5.7-13.8-9.6-28.4-17.6-41.2-1.4-2.3-4.7-3-5.5.2-6.1 23.8-15.8 48.8-35.7 64.5-15.1 11.9-35.8 17.9-54.4 11-9.6-3.6-18.1-8.5-26.1-15-33-26.7-36.8-70.3-27.7-109.3 11.1-47.7 37.1-91.6 64.5-131.5.3-.5.5-1 .5-1.5 3.4.9 3.6-5.2.4-6.7-27.8-13.2-45.5-42.9-46.4-73.4-.9-32 16.3-63.3 41.5-82.4 51.9-39.4 142.4-32.9 177.1 26.4 18.4 31.4 18.9 73.3-1.9 103.9-.1.1-.2.3-.2.5-3.7.6-7.2 2.6-10 6.3-2.3 3-3.8 6.4-4.8 10.1-10.7 10.1-23.3 17.8-37.2 22.5-.6 0-1.1.2-1.5.5-1.1.3-2.2.7-3.3 1-3.9 1.1-1.5 7.8 2 6.8 1.6-.4 3.1-.9 4.7-1.4 17.2.8 32.7 11.5 39.5 27.1 2.2 7.1 5.2 14 9.2 20.4 2.4 3.8 7.5 1.1 5-2.8-2.6-4.1-4.7-8.5-6.4-12.9-.6-2.1-1.3-4.2-2.1-6.2-3-9.8-4.3-20-4.9-30.3-.6-10.7-1.6-35.9 15.4-34.5 7.9.7 14 8.7 17.9 14.9 4.7 7.6 8.8 15.6 12.6 23.6 7.2 15.1 13 30.8 17.6 46.9-13-2.7-27.1 2-39.7 4.7-15.3 3.3-30.5 6.6-45.8 9.8-10.2 2.1-23 4.5-32.7-.8-10.9-6-11-22.6-13.9-33.3-6.3-22.8-27.8-49.4-54.5-40.1-3.8 1.3-1.4 8 2 6.8 11-3.8 22.4-.2 31 7.2 8.6 7.3 13.2 17.8 16.1 28.5 2.7 10.2 3.4 22.8 10.5 31.2 1.6 1.9 3.4 3.4 5.5 4.7-10.6-1-21.5 1.9-31 7.5-6.3 3.7-11.8 8.4-16.8 13.6-9.7-15.5-19.1-31.8-21-50.3-.4-3.9-6.6-5.4-6.1-.8 2.1 20.5 12.3 38.4 23.1 55.5-7.7 9-14.1 19.4-20.2 29.3-12.1 19.6-22.5 40.2-28 62.6-.9 3.6 5 6.9 6 2.5 4.3-17.8 12-34.4 21.1-50.2 8.7-15.2 18.1-31 30.3-43.7 11.9-12.3 29-22.1 46.7-18.7 15.2 2.9 26 15.4 33.2 28.2 8.5 15.1 14 32.1 18 48.9 2 9.1 3.7 18.5 4.7 28.1zm-8-180.6c.3 4.6.8 9.2 1.5 13.8-6.4-7.2-14.8-12.7-24-15.5 7.9-3.7 15.2-8.4 22-13.9-.2 5.4.2 10.8.5 15.6zm-5.2 109.7c-6.5-14.3-15.8-28.6-29.8-36.5-.4-.2-.8-.4-1.1-.6.7 0 1.4.1 2.1.1 10.7.1 21-2.5 31.4-4.7l42-9c12.1-2.6 26.9-7.2 38.2.1 11.9 7.7 6.1 20.7-2.3 28.5-9.9 9.2-23.6 14.7-36 19.5-13.1 5.1-26.8 8.9-40.6 11.5-1.3-3-2.6-5.9-3.9-8.9zm44 41.7c.2.8.5 1.6 1 2.2-.7-.6-.9-1.1-.9-1.4-.1.6.2 1.5.2 2.1.2 2.1.3 4.1.4 6.2.4 5.9.6 11.9.9 17.8.2 5.8.4 11.7.6 17.5 0 2.2.1 4.5.1 6.7v.5c-1.1-.1-2.2-.3-3.3-.4 0-2.3-.2-4.5-.2-6.7-.1-7.5-.2-15-.3-22.4-.1-8.4-.2-16.8-.3-25.2.5 1 1.2 2.1 1.8 3.1zm-7.7 20.3c.1 7.4.2 14.9.3 22.3v3.8c-.1-.1-.2-.2-.4-.4.2-2.7-.2-6-.2-7.2-.1-8-.2-16.1-.3-24.1-.2-9.6-.3-19.1-.5-28.7.1.2.2.3.3.5.2.2.3.5.5.7 0 .2-.1.4 0 .6 0 10.9.2 21.7.3 32.5zm-6.4 25.2s.1-.1.1-.1c0 .5-.1 0-.1.1zm9.8-63.1c-3-4.6-5.9-9.8-9.4-14.3 2.7-.8 5.4-1.7 8.1-2.6 4.2 6.6 8.8 12.9 13.8 18.9 1.6 1.9 3.5 4.7 5.6 7 0 6.6 0 13.1-.1 19.7-5.9-9.6-11.9-19.2-18-28.7zm27.3 120c-2.1-2.5-2-1.7-2.2-4.6-.4-6.8-.4-13.7-.5-20.5-.3-18-.5-36-1.6-53.9.4-.1.7-.1 1-.2.8-.1 1.7-.1 2.6-.2 1.3 27 1.2 54 2.4 81.1-.7-.6-1.2-1.2-1.7-1.7zm12.4-25.9c.1 7.2.2 14.5.2 21.7 0 3.2.3 6.7-.1 10-1.6-.1-3.1-.2-4.7-.3-1.3-28.4-1.1-56.8-2.5-85.1 2 0 3.9-.1 5.9-.1.4 17.9.9 35.9 1.2 53.8zm112.6-60.2c-35.5-.1-71.1-.7-106.6-.6-6.1 0-12.2.1-18.3.3-1.1 0-2.3 0-3.5.1.2-6.9.2-13.8.2-20.7 1.9.4 4.1.2 5.9.3 14 .6 28.1.7 42.1.9 39.8.6 79.7.9 119.5 1.3 7.2.1 14.3.2 21.5.3 2 0 4.1.1 6.1.1 0 .5.1 1 .1 1.6.1 2.3.1 4.7.2 7 .1 2.6 0 5.3.1 8-1.4.2-2.8.4-4.3.5-5 .4-10.1.5-15.2.7-15.8.4-31.8.3-47.8.2zm26 6.9c-.1 4.4-.1 8.7-.2 13.1-.1 3.4-.1 6.9-.2 10.3-.2-.2-.3-.3-.5-.5.4-3.4-.2-8.2-.2-9.7 0-4.4-.1-8.8-.2-13.2.4.1.8 0 1.3 0zm9.2 12.3c.1 3.8.1 7.6.1 11.4 0 1.5 0 3-.1 4.5v.2c-1.1-.1-2.2-.3-3.3-.4.2-4.4-.1-8.9 0-13.1.1-5 .2-10 .2-14.9h3c.1 4.1 0 8.2.1 12.3zm19.3 67.6c-1.7-1.9-1.5-1.3-1.5-3.8.1-6.3 0-12.7-.1-19-.2-19.1-.3-38.3-1.6-57.4.9 0 1.8 0 2.7-.1 1.3 27.4 1.2 54.8 2.4 82.2-.7-.7-1.4-1.3-1.9-1.9z"/></g></svg>